<svg width="713" height="582" viewBox="0 0 713 582" fill="none" xmlns="http://www.w3.org/2000/svg">
<path d="M493.47 241.337V243.034L488.125 369.346H482.589L449.945 369.856L343.043 371.044L234.232 372.402H231.177L220.487 372.572H216.096L193.952 372.912L181.544 242.865L493.47 241.337Z" fill="url(#paint0_linear_402_1355)"/>
<path style="mix-blend-mode:multiply" opacity="0.2" d="M493.469 243.034L488.124 369.346H482.588L487.552 251.523L472.662 253.051L449.945 369.856L343.042 371.044L381.794 251.523L274.128 244.562L234.231 372.402H231.177C240.34 347.276 275.274 249.486 262.293 254.07C249.885 258.484 227.359 344.899 220.486 372.572H216.096L253.321 243.544L493.469 243.034Z" fill="url(#paint1_linear_402_1355)"/>
<path d="M346.098 456.101V472.06C346.098 472.06 340.944 472.06 332.735 472.06V458.648L217.815 456.95V473.078C208.652 473.248 203.116 473.418 203.116 473.588L203.498 454.573L346.098 456.101Z" fill="#2E1D3D"/>
<path d="M637.216 456.101V472.06C637.216 472.06 632.062 472.06 623.662 472.06V458.648L508.742 456.95V473.078C499.77 473.248 494.043 473.418 494.043 473.588L494.425 454.573L637.216 456.101Z" fill="#2E1D3D"/>
<path d="M641.987 449.31L641.415 456.441H486.406L488.315 363.744L490.224 275.971L490.606 255.937L490.797 251.183L493.088 251.353L498.051 251.863L510.459 252.711L510.268 255.767L509.314 272.915L507.023 310.435L502.251 390.738L498.815 448.631L641.987 449.31Z" fill="url(#paint2_linear_402_1355)"/>
<g style="mix-blend-mode:multiply" opacity="0.6">
<path d="M632.824 451.177V456.78L486.406 456.441L490.797 251.183L498.051 251.863L491.751 451.008L632.824 451.177Z" fill="#A80B6C"/>
</g>
<path d="M313.645 239.978L333.88 239.809H344.188L386.567 239.639L484.498 239.129L551.312 238.79L563.147 238.62L615.262 238.45L643.133 238.281H643.706H649.051L666.804 238.111H671.959L690.094 237.941L690.476 255.088L678.64 255.258H672.722H652.487L647.142 255.428H645.233H619.462L544.439 255.937H535.276L484.307 256.277L384.086 256.786L314.026 257.126L313.645 239.978Z" fill="url(#paint3_linear_402_1355)"/>
<path d="M313.643 240.148L690.092 237.941L508.549 233.527L153.48 234.036L313.643 240.148Z" fill="url(#paint4_linear_402_1355)"/>
<path style="mix-blend-mode:multiply" opacity="0.4" d="M649.05 238.281L666.803 238.111L672.721 255.258H652.486L649.05 238.281Z" fill="url(#paint5_linear_402_1355)"/>
<path style="mix-blend-mode:multiply" opacity="0.4" d="M643.133 238.281H643.705L647.142 255.428H645.233L643.133 238.281Z" fill="url(#paint6_linear_402_1355)"/>
<path d="M153.48 234.036L158.062 245.581L314.025 257.125L313.643 240.148L153.48 234.036Z" fill="url(#paint7_linear_402_1355)"/>
<path d="M350.679 450.668L350.297 455.931L350.106 457.799H195.098L181.544 247.279L188.798 247.788L201.015 248.807L203.306 321.13L207.506 449.819L350.679 450.668Z" fill="url(#paint8_linear_402_1355)"/>
<g style="mix-blend-mode:multiply" opacity="0.6">
<path d="M341.707 456.78L350.106 457.799H195.098L181.544 247.279L188.798 247.788L200.443 452.196L341.516 453.045L341.707 456.78Z" fill="#A80B6C"/>
</g>
<path style="mix-blend-mode:multiply" opacity="0.7" d="M510.267 255.767L509.313 272.914L497.286 274.782L492.132 275.631L490.223 275.97L203.305 321.13L192.996 322.828H192.805L195.669 372.911L200.441 452.196L341.514 453.045V456.101L341.705 456.78L346.096 457.289L350.105 457.798H195.096L181.542 247.278L158.062 245.581L153.48 233.866L313.643 239.978V242.185L314.025 257.125L490.605 255.937H492.896H497.859L510.267 255.767Z" fill="url(#paint9_linear_402_1355)"/>
<path style="mix-blend-mode:multiply" opacity="0.4" d="M333.879 239.809L335.979 256.786H338.651L335.024 239.809H333.879Z" fill="url(#paint10_linear_402_1355)"/>
<path style="mix-blend-mode:multiply" opacity="0.4" d="M440.209 239.809L441.545 256.277L452.426 255.937L451.663 239.639L456.626 239.299L458.153 255.937H459.871L458.153 238.79L440.209 239.809Z" fill="url(#paint11_linear_402_1355)"/>
<path d="M333.879 239.809L338.651 256.786L441.545 256.277L440.209 239.809H333.879Z" fill="url(#paint12_linear_402_1355)"/>
<g style="mix-blend-mode:screen" opacity="0.4">
<path d="M507.023 310.435L502.25 390.738L492.896 394.133L497.096 313.321L507.023 310.435Z" fill="#FFE6AE"/>
</g>
<g style="mix-blend-mode:screen" opacity="0.4">
<path d="M157.299 280.045C162.262 282.422 164.744 276.819 164.744 276.819H158.635L157.299 280.045Z" fill="#FFE6AE"/>
</g>
<path d="M601.135 205.684L507.595 192.781L445.554 206.703L536.421 201.27L601.135 205.684Z" fill="#5E0C72"/>
<path d="M445.744 181.406C445.871 181.52 445.935 181.633 445.935 181.746C446.062 181.972 446.19 182.142 446.317 182.255V182.425C446.953 182.878 447.589 183.444 448.226 184.123C448.48 184.462 448.735 184.802 448.989 185.141C450.135 186.669 450.707 188.197 451.089 189.895C451.217 190.235 451.344 190.631 451.471 191.083C452.616 198.044 449.18 205.005 448.989 205.175C448.862 205.288 448.799 205.345 448.799 205.345L452.235 205.175L516.758 201.609H517.331H517.522H517.712C517.712 201.609 517.903 198.384 518.094 194.309C518.285 188.707 518.667 181.237 518.858 177.162C519.049 175.125 519.049 173.936 519.049 173.766C517.14 173.766 445.744 181.406 445.744 181.406Z" fill="#E3DCF4"/>
<path d="M445.744 205.175L445.553 206.703L516.758 202.798V202.458V201.609L517.331 194.139L519.049 173.766V172.748L443.645 180.048L443.263 181.916L445.935 181.746L517.14 174.785L516.949 176.483L515.613 193.97L515.231 200.93L453.38 205.005L448.99 205.175H445.744Z" fill="url(#paint13_radial_402_1355)"/>
<path style="mix-blend-mode:multiply" opacity="0.3" d="M445.936 181.746L446.317 182.255V182.425L515.613 176.483H516.949L517.14 174.785L445.936 181.746Z" fill="url(#paint14_linear_402_1355)"/>
<path d="M516.758 202.798H517.521L522.867 202.968L525.157 203.137L534.32 203.477L554.555 204.156L592.353 205.345H594.644L601.134 205.684L603.807 179.369L597.889 178.86L595.217 178.69L549.592 174.955L534.32 173.936L528.402 173.427L525.73 173.257L519.239 172.748H519.049V173.767V173.936L517.33 194.139L516.758 201.609V202.458V202.798Z" fill="#652DA1"/>
<g style="mix-blend-mode:multiply" opacity="0.7">
<path d="M529.548 201.27L589.299 203.647V203.986L529.548 201.609V201.27Z" fill="#843178"/>
</g>
<g style="mix-blend-mode:multiply" opacity="0.7">
<path d="M445.744 205.175L445.553 206.703L516.758 202.798H517.522C517.394 202.798 517.331 202.685 517.331 202.458C517.331 202.232 517.331 201.949 517.331 201.609C517.331 200.081 517.522 197.365 517.713 194.139C517.903 188.876 518.476 182.255 518.858 177.162C518.985 175.464 519.112 173.993 519.24 172.748H519.049L443.645 180.048L443.263 181.916L445.935 181.746L446.317 182.255V182.425C446.953 182.878 447.59 183.444 448.226 184.123C448.481 184.462 448.735 184.802 448.99 185.141C450.135 186.669 450.708 188.197 451.089 189.895C451.217 190.235 451.344 190.631 451.471 191.083C452.617 198.044 449.181 205.005 448.99 205.175H445.744Z" fill="#843178"/>
</g>
<path d="M456.242 234.885L504.921 236.922H505.685H505.875C505.875 236.922 506.066 220.285 506.066 219.945C504.348 219.775 457.197 222.831 457.197 222.831C457.324 222.944 457.451 223.057 457.578 223.171C457.706 223.397 457.833 223.623 457.96 223.85C459.297 226.396 458.915 229.113 458.151 231.15C458.024 231.716 457.897 232.169 457.769 232.508C457.197 233.697 456.624 234.376 456.433 234.715C456.306 234.828 456.242 234.885 456.242 234.885Z" fill="#E3DCF4"/>
<path d="M504.729 238.111H505.683H511.028L513.319 237.941H522.482L560.089 237.602L616.212 236.753H618.694L625.185 236.583L627.285 220.964L621.367 220.794H618.503L554.362 219.436L521.337 219.096H515.61L512.746 218.926H506.065V219.945L504.919 236.922L504.729 238.111Z" fill="#E5052B"/>
<path d="M452.997 236.243L504.73 238.111L504.921 236.922L506.067 219.945V218.926L455.097 221.643L454.906 223.341L457.579 223.171L504.158 220.964L503.203 236.243L456.433 234.715H453.188L452.997 236.243Z" fill="url(#paint15_radial_402_1355)"/>
<path d="M616.214 236.753H618.696C619.459 232.678 620.605 225.548 621.368 220.794H618.505L616.214 236.753Z" fill="#FFCF57"/>
<path d="M511.03 238.111L513.321 237.941C513.894 233.697 515.23 224.02 515.612 219.096L512.748 218.926L511.03 238.111Z" fill="#FFCF57"/>
<g style="mix-blend-mode:multiply" opacity="0.7">
<path d="M452.997 236.243L504.73 238.111H505.685V236.922L506.067 219.945V218.926L455.097 221.643L454.906 223.341L457.579 223.171C457.706 223.397 457.833 223.623 457.96 223.85C459.297 226.396 458.915 229.113 458.151 231.15C458.024 231.716 457.897 232.169 457.77 232.508C457.197 233.697 456.624 234.376 456.433 234.715H453.188L452.997 236.243Z" fill="#843178"/>
</g>
<path style="mix-blend-mode:multiply" opacity="0.3" d="M457.961 223.85L503.967 222.492L504.158 220.964L457.579 223.171L457.961 223.85Z" fill="url(#paint16_linear_402_1355)"/>
<path d="M618.124 220.285L491.559 219.436L427.036 221.982L521.339 216.719L618.124 220.285Z" fill="#5E0C72"/>
<path d="M430.472 220.624L501.677 217.229L502.44 217.398H502.822C502.822 217.398 502.822 200.591 502.822 200.421C502.822 200.421 502.758 200.421 502.631 200.421C500.913 200.251 429.518 208.74 429.518 208.74C429.645 208.966 429.772 209.136 429.899 209.249C430.027 209.476 430.154 209.645 430.281 209.759C431.617 212.475 433.145 214.852 432.381 217.059C432.254 217.512 432.063 217.964 431.808 218.417C431.427 219.436 430.854 220.285 430.663 220.624C430.536 220.624 430.472 220.624 430.472 220.624Z" fill="#E3DCF4"/>
<path d="M427.036 221.982L501.677 218.587V217.229L502.631 200.421L502.822 199.233L427.418 207.551L427.227 209.419L429.9 209.249L500.913 201.27L500.15 216.55L430.663 220.624L427.418 220.454L427.036 221.982Z" fill="url(#paint17_radial_402_1355)"/>
<g style="mix-blend-mode:multiply" opacity="0.7">
<path d="M427.036 221.982L501.677 218.587H502.441V217.398L502.822 200.421V199.233L427.418 207.551L427.227 209.419L429.9 209.249C430.027 209.476 430.154 209.645 430.281 209.759C431.618 212.475 433.145 214.852 432.381 217.059C432.254 217.512 432.063 217.964 431.809 218.417C431.427 219.436 430.854 220.285 430.663 220.624L427.418 220.454L427.036 221.982Z" fill="#843178"/>
</g>
<path style="mix-blend-mode:multiply" opacity="0.3" d="M430.282 209.759L500.723 202.968L500.914 201.27L429.9 209.249L430.282 209.759Z" fill="url(#paint18_linear_402_1355)"/>
<path d="M501.675 218.587H502.438L507.784 218.757H510.265L519.237 218.926L571.543 219.436L609.341 219.945L611.632 220.115L618.122 220.285L619.649 204.665L613.731 204.326L611.059 204.156L517.901 200.251L512.174 199.912L509.502 199.742L502.82 199.233L502.629 200.421L501.675 217.229V218.587Z" fill="#B6D7FF"/>
<path d="M561.043 216.04L612.394 217.059C612.967 213.663 612.776 211.287 613.158 207.552L561.616 206.533L561.043 216.04Z" fill="#8BACCC"/>
<path d="M579.182 139.981C579.182 139.981 573.837 134.549 555.511 139.981C537.184 145.414 511.986 154.582 504.732 153.224C497.669 151.696 489.46 147.112 489.46 147.112C495.569 154.412 501.677 154.412 501.677 154.412L496.142 158.147C489.46 157.638 483.733 155.091 479.343 152.205C471.325 147.112 466.743 140.66 466.171 139.981C468.461 156.28 475.525 163.24 478.388 165.447C474.952 163.071 465.789 155.431 461.971 141.849C461.716 141.17 461.526 140.547 461.398 139.981C459.871 133.7 459.489 127.927 459.68 123.174C460.253 114.006 462.735 108.234 462.735 108.234C462.735 108.234 465.407 65.9598 470.37 55.264C475.143 44.5682 497.287 38.9657 497.287 38.9657L547.302 62.2248L569.446 105.347L579.182 139.981Z" fill="#5E239D"/>
<g style="mix-blend-mode:multiply" opacity="0.5">
<path d="M529.167 139.812L518.477 144.905L505.114 149.319C505.114 149.319 474.761 128.776 474.57 137.774C474.379 143.037 477.052 148.64 479.343 152.205C471.325 147.112 466.743 140.66 466.171 139.981C463.116 133.7 462.925 129.795 462.925 129.795C461.78 133.53 461.589 138.114 461.971 141.849C461.716 141.17 461.526 140.547 461.398 139.981C459.871 133.7 459.489 127.927 459.68 123.174C461.207 117.401 463.88 107.894 467.316 101.273C472.279 91.4259 474.188 70.8832 474.188 70.8832L528.403 112.138L529.167 139.812Z" fill="#5E239D"/>
</g>
<path d="M489.078 278.178C489.078 278.178 502.632 280.385 538.711 275.122C574.6 270.028 605.907 257.465 606.098 255.088C606.289 252.881 577.082 243.883 577.082 243.883L519.431 264.086L489.078 278.178Z" fill="url(#paint19_linear_402_1355)"/>
<path d="M551.692 121.815C551.692 121.815 575.936 132.002 580.518 142.358L583 135.397L586.245 147.112C586.245 147.112 599.989 132.851 602.28 123.343C604.38 114.006 587.008 89.0491 587.008 89.0491L573.073 63.5829L556.083 79.5417L551.692 121.815Z" fill="#632BA1"/>
<path d="M570.593 101.612C570.466 101.952 570.339 102.348 570.211 102.801C567.539 109.762 563.148 122.664 542.531 131.662C523.823 139.812 513.324 140.321 506.07 139.812C500.725 139.302 496.143 136.246 496.143 136.246C479.153 129.116 469.418 122.325 468.463 112.987C468.081 110.101 469.036 107.554 470.563 105.517V105.347C470.563 105.234 470.627 105.178 470.754 105.178C473.617 100.933 478.199 98.3866 478.39 96.5191C478.772 93.6329 475.908 82.5976 474.572 74.4485C473.236 66.1295 470.945 51.3592 490.798 41.682C497.289 38.4563 505.115 36.5888 512.751 35.4004C527.45 33.3631 541.004 34.5515 541.004 34.5515C579.947 38.7959 576.32 86.6722 570.593 101.612Z" fill="url(#paint20_linear_402_1355)"/>
<path d="M570.211 102.801C567.539 109.762 563.148 122.664 542.531 131.662C523.823 139.812 513.324 140.321 506.07 139.812C524.587 139.132 538.331 124.192 543.677 115.704C549.022 107.215 549.785 91.9353 540.05 90.2375C530.505 88.5398 519.051 93.1236 515.424 93.8027C511.797 94.6516 511.797 93.8027 511.797 93.8027C511.415 85.1443 513.515 59.5084 513.515 59.5084L536.422 60.3573C536.422 60.3573 512.56 44.2287 498.052 49.4917C483.544 54.5849 480.49 60.3573 480.49 60.3573C480.49 60.3573 483.735 65.2807 487.553 73.4298C491.562 81.4092 492.134 97.0285 492.134 97.0285C492.134 97.0285 484.88 96.8587 478.39 99.9146C473.999 101.952 471.327 104.499 470.754 105.178C473.617 100.933 478.199 98.3867 478.39 96.5191C478.772 93.633 475.908 82.5977 474.572 74.4485C473.236 66.1296 470.945 51.3592 490.798 41.6821C497.289 38.4564 505.115 36.5888 512.751 35.4004L538.713 36.5889L563.53 65.79L570.211 102.801Z" fill="url(#paint21_linear_402_1355)"/>
<path d="M502.251 43.3798C502.251 43.3798 507.596 38.1168 520.004 38.7959C532.413 39.6448 543.676 54.2454 543.676 54.2454L538.14 38.6261C538.14 38.6261 525.159 28.7793 519.623 27.9304C514.277 27.0815 503.396 39.475 502.251 43.3798Z" fill="#5E239D"/>
<path d="M574.41 92.4445C574.41 92.4445 572.501 76.8253 574.41 68.6761C574.41 68.6761 579.946 85.6535 580.328 87.0117C580.71 88.5397 577.082 94.6516 577.082 94.6516L574.41 92.4445Z" fill="#6832A3"/>
<path fill-rule="evenodd" clip-rule="evenodd" d="M613.162 122.495C610.681 129.116 605.335 135.737 598.845 139.812C600.181 138.793 605.526 134.549 608.39 124.362C608.517 123.796 608.644 123.287 608.772 122.834C611.826 109.761 606.29 106.875 606.29 106.875C606.29 106.875 606.354 106.989 606.481 107.215V107.385C606.672 109.761 607.244 120.627 601.518 131.323C595.027 143.377 586.246 147.112 586.246 147.112C586.246 147.112 586.628 137.435 585.864 126.569C585.482 117.741 584.337 108.064 581.855 101.612C579.946 96.3493 578.419 91.4259 577.274 87.0117C575.365 79.7114 574.601 74.788 574.601 74.788C574.601 74.788 574.601 75.1841 574.601 75.9764C574.601 78.8626 574.601 85.9931 576.701 95.5005C576.955 96.7455 577.274 97.9339 577.655 99.0657C578.228 101.952 578.992 105.008 579.755 108.064C582.81 120.288 585.1 133.869 580.901 143.886C580.901 143.886 578.228 136.246 573.456 127.588C569.829 124.362 565.056 119.948 560.284 115.873C550.548 107.215 553.411 94.1423 549.593 71.2228C546.73 54.5849 537.185 43.21 528.595 36.2493C528.468 36.0229 528.404 35.9097 528.404 35.9097C524.968 33.3631 521.913 31.3258 519.432 30.1374C519.432 30.1374 511.223 32.5142 502.251 43.3798C502.251 43.21 502.633 42.3611 503.014 41.1727C503.014 41.1727 503.205 40.8332 503.396 40.1541C503.524 39.9277 503.651 39.7579 503.778 39.6447C503.778 39.4184 503.842 39.1354 503.969 38.7959C504.096 38.6827 504.224 38.5129 504.351 38.2866C504.605 37.7207 504.86 37.0415 505.114 36.2493C506.26 34.212 507.596 32.0049 509.123 30.1374C511.414 27.2512 514.087 25.0442 517.523 24.1953C517.523 24.1953 523.631 24.8744 530.886 28.4396C538.14 31.8351 547.303 34.8911 556.275 36.5888C565.247 38.2866 577.464 44.9078 580.901 51.0196C584.337 57.1315 586.818 76.9951 593.5 87.0117C600.372 97.1982 607.244 98.3866 612.78 107.894C615.262 111.969 615.071 117.232 613.162 122.495ZM569.256 120.457C568.365 119.212 567.538 118.024 566.774 116.892C557.993 105.178 555.893 85.9931 555.893 85.9931C555.893 85.9931 553.411 104.499 563.529 114.855C565.629 116.892 567.538 118.76 569.256 120.457Z" fill="#5E239D"/>
<path d="M501.679 41.003C501.679 41.003 471.899 42.5309 468.463 74.6183C468.463 74.6183 466.172 41.3425 482.398 35.4004C498.433 29.2885 501.679 41.003 501.679 41.003Z" fill="#5E239D"/>
<g style="mix-blend-mode:multiply" opacity="0.5">
<path d="M489.463 44.2287C489.463 44.2287 483.736 42.0217 479.345 44.9078C474.954 47.9638 473.045 54.2454 471.709 67.318C470.373 79.372 467.318 99.2356 467.318 99.2356C467.318 99.2356 467.7 72.9206 468.655 63.583C469.418 54.2454 473.045 37.9471 482.399 35.4005C491.753 32.8538 501.68 41.003 501.68 41.003C501.68 41.003 491.944 43.0403 489.463 44.2287Z" fill="#5E239D"/>
</g>
<path d="M511.033 29.9677C511.033 29.9677 507.406 32.1747 504.352 38.2866C504.097 38.6261 503.906 38.9657 503.779 39.3052C503.779 39.4184 503.779 39.5316 503.779 39.6447C503.652 39.7579 503.588 39.8145 503.588 39.8145C503.461 40.1541 503.333 40.437 503.206 40.6634C503.206 40.6634 503.206 40.72 503.206 40.8332C503.079 41.0596 503.015 41.1727 503.015 41.1727L501.679 41.003C501.17 40.7766 500.725 40.5502 500.343 40.3238C500.088 40.2107 499.834 40.0975 499.579 39.9843C499.452 39.8711 499.261 39.7579 499.006 39.6447C496.143 38.2866 491.752 36.419 487.553 35.5702C487.425 35.5702 487.362 35.5702 487.362 35.5702C485.453 35.2306 483.735 35.0608 482.398 35.4004C477.435 36.419 472.853 45.5869 470.372 55.264C470.372 55.3772 470.308 55.4903 470.181 55.6035C470.181 55.6035 470.181 55.6601 470.181 55.7733C469.417 58.8292 468.845 62.0549 468.463 64.9411C468.336 65.6202 468.208 66.2993 468.081 66.9784C468.081 67.0916 468.081 67.2048 468.081 67.318C467.127 79.0324 468.654 93.1236 466.172 107.554C463.69 123.174 455.864 131.662 456.245 145.244C456.436 158.147 461.018 167.655 461.4 168.334C460.445 167.485 446.319 151.186 449.373 130.644C450.709 122.834 453 115.364 455.482 108.573C455.736 107.894 455.991 107.215 456.245 106.536C456.373 106.309 456.436 106.14 456.436 106.026C456.564 105.687 456.691 105.404 456.818 105.178C456.818 105.064 456.882 104.951 457.009 104.838C457.009 104.725 457.009 104.668 457.009 104.668C460.827 94.6516 464.645 86.1629 464.645 79.5417C464.645 67.8273 466.554 59.5084 466.554 59.5084C466.554 59.5084 447.655 89.8979 448.991 121.306C448.991 121.872 448.991 122.495 448.991 123.174C448.991 123.174 448.8 122.834 448.61 121.985C447.655 119.269 446.319 110.61 450.709 88.2002C456.245 58.6595 477.053 33.8725 483.544 32.5143C486.789 31.6654 493.852 30.9863 499.77 30.6467L503.015 30.477C504.415 30.3638 505.688 30.2506 506.833 30.1374H509.124C510.269 29.9676 511.033 29.9677 511.033 29.9677Z" fill="#5E239D"/>
<path d="M597.891 197.535C595.982 203.307 587.01 211.796 587.01 211.796C587.01 211.796 587.01 210.947 584.91 209.249C582.619 207.382 571.929 206.193 546.158 208.91C520.196 211.796 493.088 221.812 490.416 223.85C487.743 226.057 485.834 228.773 485.834 228.773C485.834 228.773 479.725 224.189 477.435 219.945C476.48 218.247 476.289 216.549 477.244 215.191C480.68 210.607 489.461 207.891 489.461 207.891C484.88 207.382 480.489 203.986 479.344 197.874C478.198 191.932 482.016 184.123 488.125 172.748C494.234 161.203 497.479 153.394 503.969 147.112C503.969 147.112 503.969 147.055 503.969 146.942C510.269 140.83 523.059 139.981 523.059 139.981C523.059 139.981 524.586 146.772 535.277 144.905C545.967 142.867 551.694 129.116 551.694 129.116C555.512 125.72 565.247 122.495 570.592 126.569C573.647 128.946 575.747 132.002 577.465 137.095C578.801 140.66 579.946 145.414 581.474 151.526C584.91 166.466 588.155 182.085 588.155 182.085C589.682 185.141 599.8 191.762 597.891 197.535Z" fill="#FBB453"/>
<g style="mix-blend-mode:multiply" opacity="0.8">
<path d="M579.184 203.477C570.021 204.156 554.558 194.309 554.558 194.309C554.558 194.309 539.859 193.29 517.142 199.063C495.762 204.496 492.517 207.382 492.135 207.721L516.188 166.466C516.188 166.466 523.06 152.375 518.479 147.112C514.088 141.849 504.734 146.603 503.97 146.942C510.27 140.83 523.06 139.981 523.06 139.981C523.06 139.981 524.587 146.772 535.278 144.905C545.968 142.867 551.695 129.116 551.695 129.116C555.513 125.72 565.248 122.495 570.594 126.569C573.648 128.946 575.748 132.002 577.466 137.095C573.839 138.114 567.73 140.321 565.821 144.735C562.767 150.847 567.348 172.918 567.348 172.918L579.184 203.477Z" fill="#FBB453"/>
</g>
<path d="M523.059 138.453V141.34C523.059 141.34 528.022 149.489 538.712 143.886C549.212 138.284 551.693 129.116 551.693 129.116V127.078C551.693 127.078 538.139 135.397 523.059 138.453Z" fill="url(#paint22_linear_402_1355)"/>
<path d="M532.031 174.276C529.167 178.69 525.349 176.483 525.349 176.483C525.349 176.483 510.65 204.326 490.034 207.891C489.906 207.891 489.715 207.891 489.461 207.891C489.461 207.891 477.816 204.156 481.061 191.932C484.497 179.878 497.86 171.899 507.023 166.466C516.186 160.864 520.768 154.921 520.768 154.921C520.768 154.921 519.623 152.205 523.059 152.375C523.059 152.375 521.722 166.466 527.449 170.201C527.449 170.201 527.513 170.201 527.64 170.201C527.64 170.201 527.704 170.088 527.831 169.862C528.404 168.843 530.504 165.787 531.84 162.561C531.84 162.561 535.085 170.031 532.031 174.276Z" fill="#FBB453"/>
<path d="M581.856 202.968C580.902 203.647 578.42 203.647 575.366 202.968C575.239 202.854 575.111 202.798 574.984 202.798C570.021 201.44 563.339 198.214 558.376 192.611C550.549 183.613 546.922 172.238 546.922 172.238C546.922 172.238 541.959 173.087 541.386 168.334C540.623 163.75 544.44 159.166 544.44 159.166L545.586 164.938C545.586 164.938 547.686 166.806 551.695 164.599C558.376 161.203 557.421 151.526 557.421 151.526C559.33 151.017 559.903 153.224 559.903 153.224C564.103 164.259 580.711 172.578 584.338 180.218C587.965 187.688 584.529 200.93 581.856 202.968Z" fill="#FBB453"/>
<path d="M543.677 244.732C543.677 244.732 546.922 286.327 545.395 298.55C544.059 310.944 544.059 315.019 544.631 324.526C545.395 334.033 547.877 346.936 547.877 346.936C547.877 346.936 550.74 345.917 557.231 342.862C563.721 339.975 570.593 340.485 570.593 340.485C570.593 340.485 571.93 317.735 574.22 296.853C576.32 275.97 579.184 251.183 579.184 251.183C579.184 251.183 548.449 240.997 543.677 244.732Z" fill="url(#paint23_linear_402_1355)"/>
<path d="M513.897 267.652C513.897 267.652 512.179 269.519 509.888 272.066C504.924 277.329 497.288 285.817 495.952 288.704C493.661 293.118 488.698 304.493 480.49 318.414C479.599 319.999 478.644 321.583 477.626 323.168C469.799 335.052 460.636 344.729 460.636 344.729H451.091C444.601 339.466 438.874 337.938 438.874 337.938C442.883 331.487 449.373 319.772 455.1 309.586C460.636 299.399 465.218 290.911 465.218 290.911C465.218 290.911 465.409 287.685 467.509 282.252C467.763 281.799 468.081 281.177 468.463 280.385C469.418 278.008 471.327 274.273 473.236 269.859C478.772 258.314 486.217 242.865 486.217 242.865C501.106 240.827 513.897 267.652 513.897 267.652Z" fill="url(#paint24_linear_402_1355)"/>
<path d="M509.888 272.066C504.925 277.329 497.289 285.817 495.952 288.704C493.661 293.118 488.698 304.493 480.49 318.414C479.599 319.999 478.644 321.583 477.626 323.168L457.2 326.903L455.1 309.586C454.973 309.586 454.973 309.586 455.1 309.586C463.882 320.961 477.435 318.414 477.435 318.414C485.835 313.491 486.407 299.399 486.407 299.399C474.381 292.608 468.463 280.385 468.463 280.385C469.418 278.008 471.327 274.273 473.236 269.859L479.344 266.633L509.888 272.066Z" fill="url(#paint25_linear_402_1355)"/>
<path d="M580.71 268.84C581.092 270.538 577.656 274.103 577.656 274.103C577.656 274.103 577.465 276.48 576.892 280.215C575.747 288.194 573.838 302.455 573.074 312.132C571.738 326.054 570.784 336.919 570.784 336.919C570.211 337.089 564.675 338.278 558.566 340.654C558.439 340.768 558.248 340.824 557.993 340.824C554.366 342.352 550.739 344.389 547.876 346.936L546.54 341.673C546.54 341.673 543.294 332.166 543.485 322.828C543.676 313.321 544.822 299.23 545.012 294.476C545.012 292.778 545.012 290.911 545.012 288.873C544.822 283.78 544.44 278.517 544.44 278.517C544.44 278.517 541.576 276.989 542.149 274.612C542.276 274.16 542.785 273.65 543.676 273.084C546.921 271.217 555.13 269.01 564.484 267.482C576.51 265.444 580.519 267.312 580.71 268.84Z" fill="#FBB453"/>
<path d="M479.343 326.903C479.343 326.903 480.107 326.903 480.489 333.015C481.061 338.957 472.089 336.41 470.753 337.768C469.417 339.296 473.616 341.503 470.753 343.371C467.889 345.069 460.635 344.729 460.635 344.729C460.635 344.729 457.008 348.973 448.991 344.729C440.973 340.315 433.719 330.638 433.719 327.921C433.719 326.054 438.682 325.884 441.927 325.375C443.645 325.205 444.791 324.865 445.173 324.186C445.745 322.319 443.836 320.621 445.173 318.244C445.554 317.395 446.127 316.886 446.891 316.547C448.227 316.037 449.754 316.037 449.754 316.037C449.754 316.037 446.318 310.604 447.463 306.869C448.8 302.965 459.49 301.606 459.49 301.606L455.099 309.586C455.099 309.586 460.826 317.395 468.844 319.942C476.862 322.489 478.961 320.961 478.961 320.961L481.252 317.056C481.252 317.056 485.643 321.13 486.215 323.847C486.788 326.393 479.343 326.903 479.343 326.903Z" fill="#FBB453"/>
<path d="M474.189 71.053C474.189 71.053 474.57 65.6202 477.816 65.1109C481.061 64.7713 487.552 73.4298 487.552 73.4298C487.552 73.4298 482.015 60.0176 478.198 58.3199C474.571 56.6222 473.807 64.6016 473.807 64.6016C473.807 64.6016 473.043 68.5064 474.189 71.053Z" fill="#5E239D"/>
<path d="M511.032 55.9431C511.032 55.9431 514.087 61.0363 517.332 62.3945C520.577 63.5829 526.495 61.5456 533.367 62.9038C540.43 64.262 544.63 66.6388 544.63 66.6388C544.63 66.6388 541.194 62.2247 534.513 59.5083C524.968 55.6035 513.514 57.8106 511.032 55.9431Z" fill="#5E239D"/>
<path d="M507.025 102.631C507.025 102.631 503.207 104.838 500.726 106.875C498.244 109.082 495.763 109.422 495.763 109.422C489.845 108.403 486.409 106.196 486.218 104.159C486.09 103.593 486.218 103.084 486.599 102.631C488.127 100.424 491.181 98.3866 491.181 98.3866C495.381 94.4818 504.162 94.9912 505.498 97.0285C506.453 98.3867 506.835 100.254 506.835 101.612C507.025 102.291 507.025 102.631 507.025 102.631Z" fill="url(#paint26_linear_402_1355)"/>
<path d="M507.024 102.631C507.024 102.631 503.206 104.838 500.724 106.875C498.242 109.082 495.761 109.422 495.761 109.422C489.843 108.403 486.407 106.196 486.216 104.159C486.216 104.159 488.697 105.178 494.806 104.159C499.96 103.14 504.351 101.612 506.833 101.612C507.024 102.291 507.024 102.631 507.024 102.631Z" fill="url(#paint27_linear_402_1355)"/>
<path d="M501.487 106.366C501.487 106.366 503.015 102.631 507.023 102.631C507.023 102.631 503.969 104.329 501.487 106.366Z" fill="#9F4A8B"/>
<path d="M523.632 101.612C523.632 101.612 522.678 107.045 520.196 113.327C519.051 116.043 517.714 118.929 515.996 121.646C509.888 131.493 499.77 130.474 496.525 128.946C495.952 128.606 495.189 127.758 494.425 126.569C492.707 123.853 490.607 119.608 489.271 117.401C487.934 115.025 486.789 114.006 486.407 113.666C487.362 114.345 491.752 117.062 499.961 115.364C509.315 113.497 518.669 105.178 522.296 101.612H523.632Z" fill="url(#paint28_linear_402_1355)"/>
<path d="M525.159 137.774C525.159 137.774 528.213 131.153 534.131 126.569C546.54 116.892 560.093 120.118 560.093 120.118C560.093 120.118 554.748 124.871 548.258 128.946C541.767 133.021 530.504 137.435 525.159 137.774Z" fill="url(#paint29_linear_402_1355)"/>
<path d="M518.479 102.461C518.479 102.461 520.387 102.971 522.105 102.631C522.105 102.631 525.923 100.424 529.169 100.764C529.169 100.764 523.251 98.0471 518.479 102.461Z" fill="url(#paint30_linear_402_1355)"/>
<path d="M493.279 115.704C493.279 115.704 497.288 122.155 502.251 120.627C507.215 119.269 511.033 113.497 511.796 110.271C511.796 110.271 503.588 116.383 493.279 115.704Z" fill="#FFEBED"/>
<path d="M514.278 92.4446C514.278 92.4446 518.669 68.1668 528.405 67.4877C538.331 66.8086 543.295 79.5418 542.34 83.4466C542.34 83.4466 530.123 81.7488 524.778 83.9559C519.242 86.1629 514.278 92.4446 514.278 92.4446Z" fill="url(#paint31_linear_402_1355)"/>
<path d="M492.133 93.8027C492.133 93.8027 487.17 77.3346 482.207 74.6182C477.244 71.9019 477.244 84.8047 477.625 93.633C477.625 93.633 481.252 89.7282 483.925 89.3886C486.597 89.0491 492.133 93.8027 492.133 93.8027Z" fill="url(#paint32_linear_402_1355)"/>
<path d="M513.513 93.8027C513.513 93.8027 518.476 83.2767 525.539 81.7488C532.411 80.051 537.948 82.5976 540.429 82.4279C543.102 82.0883 546.538 79.0324 546.538 79.0324C546.538 79.0324 544.82 83.786 540.429 86.3327C540.429 86.3327 535.657 84.2954 527.83 85.4838C519.812 86.6722 513.513 93.8027 513.513 93.8027Z" fill="#131163"/>
<path d="M488.507 89.5584L492.134 93.8027C492.134 93.8027 489.652 97.7076 484.498 97.368C479.535 96.8587 482.589 92.2748 482.589 92.105C482.589 91.9352 485.643 89.5584 485.643 89.5584H488.507Z" fill="white"/>
<path d="M492.134 93.8027C492.134 93.8027 487.552 84.6349 482.97 85.6536C480.298 86.1629 477.625 93.633 477.625 93.633C477.625 93.633 476.098 94.6516 472.28 92.7841C472.28 92.7841 474.953 96.0098 478.198 97.0285C478.198 97.0285 481.634 90.7468 483.925 90.0677C487.552 88.7095 492.134 93.8027 492.134 93.8027Z" fill="#131163"/>
<path d="M523.058 152.375C523.058 152.375 525.922 149.828 526.876 147.112C527.831 144.395 528.976 135.228 530.312 133.19C531.648 131.153 542.339 126.23 545.011 125.89C547.684 125.381 550.738 129.965 550.738 132.172C550.547 134.209 542.911 142.188 542.911 142.188C542.911 142.188 542.148 149.319 541.193 153.393C540.239 157.298 536.23 160.015 533.367 159.675L527.449 170.201C527.449 170.201 519.431 164.259 523.058 152.375Z" fill="url(#paint33_linear_402_1355)"/>
<path d="M570.401 132.002H570.21C570.21 132.341 570.146 132.624 570.019 132.851C569.446 135.228 557.802 147.282 557.229 149.149C556.847 151.186 558.183 152.714 558.183 152.714C558.183 152.714 559.329 165.278 547.875 165.787C547.111 165.787 546.73 165.617 545.775 165.447L542.53 151.186C542.53 151.186 538.712 148.979 538.712 143.886C538.712 138.623 544.821 132.172 544.821 132.172C544.821 132.172 545.011 131.493 545.011 130.814C545.202 129.286 545.011 127.078 543.103 126.569C543.103 126.569 543.484 123.343 546.73 122.834C550.166 122.155 551.693 124.702 551.693 124.702C551.693 124.702 552.838 120.457 557.992 121.476C557.992 121.476 557.993 119.269 561.429 119.439C561.429 119.439 562.765 118.76 565.819 119.099C568.492 119.269 571.546 126.399 570.401 132.002Z" fill="url(#paint34_linear_402_1355)"/>
<path d="M530.313 133.19C530.313 133.19 536.04 127.927 543.103 126.569C543.103 126.569 544.439 127.758 543.103 129.795C541.766 132.002 534.703 135.228 534.703 135.228C534.703 135.228 534.894 137.604 536.994 142.188C539.094 146.603 540.048 151.186 538.712 154.921C537.185 158.656 533.367 159.675 533.367 159.675L527.449 170.201C527.449 170.201 519.241 165.278 523.058 152.375C523.058 152.375 526.876 148.131 527.449 147.112C528.022 145.923 529.549 134.888 530.313 133.19Z" fill="url(#paint35_linear_402_1355)"/>
<path d="M551.692 124.702C551.692 124.702 553.22 127.079 553.601 131.323C553.601 131.323 554.174 126.23 552.647 123.004C552.647 123.004 551.692 122.495 551.692 124.702Z" fill="url(#paint36_linear_402_1355)"/>
<path d="M468.462 280.385C468.462 280.385 478.198 297.871 490.033 300.588C490.033 300.588 495.569 288.704 497.478 286.327C499.387 283.78 504.16 278.178 504.16 278.178L470.753 273.763L468.462 280.385Z" fill="url(#paint37_linear_402_1355)"/>
<path d="M557.993 121.476C557.993 121.476 560.284 125.041 561.048 128.776C561.048 128.776 559.902 122.664 558.375 120.288C558.375 120.288 557.039 120.118 557.993 121.476Z" fill="url(#paint38_linear_402_1355)"/>
<path d="M561.62 119.439C561.62 119.439 565.629 122.155 567.347 126.23C567.347 126.23 566.202 121.306 562.765 119.099C562.765 119.099 562.002 118.929 561.62 119.439Z" fill="url(#paint39_linear_402_1355)"/>
<path d="M543.103 126.569C543.103 126.569 545.203 128.606 541.194 131.323L540.049 138.793C540.049 138.793 543.867 134.209 545.012 131.323C546.348 128.267 543.103 126.569 543.103 126.569Z" fill="#CF6074"/>
<path opacity="0.8" d="M570.21 132.002C570.21 132.341 570.146 132.624 570.019 132.851C569.446 135.228 557.802 147.282 557.229 149.149C557.229 149.149 550.548 149.149 548.066 150.847C545.202 152.375 545.966 160.524 546.157 162.052C546.348 163.41 547.302 165.278 547.302 165.278C546.348 165.278 546.73 165.617 545.775 165.447L542.53 151.186C542.53 151.186 538.712 148.979 538.712 143.886C538.712 138.623 544.821 132.172 544.821 132.172C544.821 132.172 545.011 131.493 545.011 130.814L545.393 130.644C545.393 130.644 546.539 133.021 548.829 133.53C550.929 134.039 553.602 133.53 553.602 133.53C553.602 133.53 557.038 133.36 560.092 133.021C563.338 132.681 568.11 132.681 570.21 132.002Z" fill="url(#paint40_linear_402_1355)"/>
<path d="M523.06 152.375C523.06 152.375 520.578 158.317 522.678 162.561C525.16 167.994 529.741 166.466 529.741 166.466L527.451 170.201C527.451 170.201 517.715 164.599 523.06 152.375Z" fill="url(#paint41_linear_402_1355)"/>
<path style="mix-blend-mode:multiply" opacity="0.5" d="M574.984 202.798C570.021 201.44 563.339 198.214 558.376 192.611C550.549 183.613 546.922 172.238 546.922 172.238C546.922 172.238 541.959 173.087 541.386 168.334C540.623 163.75 544.44 159.166 544.44 159.166L545.586 164.938C545.586 164.938 543.295 165.787 543.677 168.334C544.059 171.05 548.449 171.899 553.603 169.692C558.376 167.824 560.667 161.203 561.049 159.845C560.858 161.033 559.712 166.296 556.467 170.201C553.031 174.785 551.695 175.634 551.695 175.634C551.695 175.634 558.185 190.235 564.294 196.346C568.112 200.081 572.311 201.949 574.984 202.798Z" fill="url(#paint42_linear_402_1355)"/>
<path style="mix-blend-mode:multiply" opacity="0.5" d="M532.032 174.276C529.168 178.69 525.35 176.483 525.35 176.483C525.35 176.483 510.651 204.326 490.034 207.891C491.18 207.382 497.097 205.175 507.024 196.007C517.714 185.82 522.105 175.804 522.105 175.804C517.523 168.843 517.905 162.052 517.905 162.052C518.669 169.692 524.396 175.294 528.404 174.276C531.65 173.597 532.223 169.183 530.886 168.334C529.741 167.824 528.404 169.183 527.832 169.862C528.404 168.843 530.504 165.787 531.841 162.561C531.841 162.561 535.086 170.031 532.032 174.276Z" fill="url(#paint43_linear_402_1355)"/>
<path style="mix-blend-mode:multiply" opacity="0.8" d="M597.89 197.535C595.981 203.307 587.009 211.796 587.009 211.796C587.009 211.796 587.009 210.947 584.909 209.249C582.618 207.382 571.928 206.193 546.157 208.91C520.195 211.796 493.087 221.813 490.415 223.85C487.742 226.057 485.833 228.773 485.833 228.773C485.833 228.773 479.724 224.189 477.434 219.945C478.006 220.115 483.351 222.492 490.033 219.945C497.096 217.229 528.021 205.514 544.438 203.477C561.047 201.44 578.227 204.835 585.863 203.477C593.499 202.119 597.89 197.535 597.89 197.535Z" fill="url(#paint44_linear_402_1355)"/>
<path d="M606.1 255.088C606.1 255.088 606.036 255.088 605.909 255.088C605.336 254.918 601.9 254.239 589.11 256.786C574.793 259.502 536.422 275.291 508.36 277.838C480.108 280.554 463.309 273.254 463.309 272.235C463.309 271.217 467.699 266.633 472.281 259.333C472.281 259.333 472.408 259.163 472.663 258.823C473.172 258.031 473.681 257.126 474.19 256.107C474.444 255.881 474.635 255.654 474.762 255.428C474.762 255.315 474.762 255.258 474.762 255.258C479.917 245.751 487.362 224.699 487.362 224.699C489.843 220.964 508.742 214.852 538.331 208.91C567.729 203.137 585.865 208.91 585.865 208.91C585.865 208.91 597.891 226.906 602.473 237.941C607.245 248.976 606.1 255.088 606.1 255.088Z" fill="#5E239D"/>
<g style="mix-blend-mode:multiply" opacity="0.8">
<path d="M583.001 201.609C583.001 201.609 588.728 194.309 588.155 182.085C588.155 182.085 594.264 188.537 595.6 190.404C595.6 190.404 591.973 196.346 583.001 201.609Z" fill="#9A74C2"/>
</g>
<g style="mix-blend-mode:multiply" opacity="0.6">
<path d="M606.099 255.088C597.127 218.926 566.201 208.57 552.648 226.396C539.667 243.544 524.777 256.786 523.822 257.465C537.758 242.185 544.821 222.831 545.394 221.643C544.821 222.322 539.667 229.283 530.122 236.922C519.813 244.902 504.16 246.09 504.16 246.09C505.687 255.767 510.65 264.426 511.032 264.935C497.288 253.051 492.133 227.245 492.133 227.245C486.979 234.885 478.771 248.467 474.762 255.258C479.916 245.751 487.361 224.699 487.361 224.699C489.843 220.964 508.741 214.852 538.33 208.91C567.729 203.137 585.864 208.91 585.864 208.91C585.864 208.91 597.89 226.906 602.472 237.941C607.244 248.976 606.099 255.088 606.099 255.088Z" fill="#5E239D"/>
</g>
<path style="mix-blend-mode:multiply" opacity="0.6" d="M605.909 255.088C605.336 254.918 601.9 254.239 589.11 256.786C574.793 259.502 536.422 275.291 508.36 277.838C480.108 280.554 463.309 273.254 463.309 272.235C463.309 272.235 482.398 277.498 501.488 275.801C540.431 272.235 591.782 247.279 605.909 255.088Z" fill="url(#paint45_linear_402_1355)"/>
<path style="mix-blend-mode:multiply" opacity="0.6" d="M580.71 268.84C581.092 270.538 577.656 274.103 577.656 274.103C577.656 274.103 577.465 276.48 576.892 280.215C568.111 282.761 545.012 288.873 545.012 288.873C544.822 283.78 544.44 278.517 544.44 278.517C544.44 278.517 541.576 276.989 542.149 274.612C542.722 272.235 552.648 269.519 564.484 267.482C576.51 265.444 580.519 267.312 580.71 268.84Z" fill="url(#paint46_linear_402_1355)"/>
<g style="mix-blend-mode:multiply" opacity="0.9">
<path d="M479.343 326.903C479.343 326.903 480.107 326.903 480.489 333.015C481.061 338.957 472.089 336.41 470.753 337.768C469.417 339.296 473.616 341.503 470.753 343.371C467.889 345.069 460.635 344.729 460.635 344.729C460.635 344.729 457.008 348.973 448.991 344.729C440.973 340.315 433.719 330.638 433.719 327.921C433.719 327.921 437.537 334.033 448.991 337.938C460.253 341.843 468.462 341.843 468.462 341.843C468.462 341.843 448.418 332.505 441.927 325.375C443.645 325.205 444.791 324.866 445.173 324.186C445.745 322.319 443.836 320.621 445.173 318.244C446.318 319.942 448.99 322.998 453.954 326.903C462.926 333.864 472.853 334.543 472.853 334.543C472.853 334.543 454.336 328.431 446.891 316.547C448.227 316.037 449.754 316.037 449.754 316.037C449.754 316.037 446.318 310.604 447.463 306.869C447.463 306.869 447.463 314.17 456.245 320.961C464.835 327.921 479.534 325.545 480.489 324.017C481.634 322.489 475.525 323.507 468.844 319.942C476.862 322.489 478.961 320.961 478.961 320.961L481.252 317.056C481.252 317.056 485.643 321.13 486.215 323.847C486.788 326.393 479.343 326.903 479.343 326.903Z" fill="#FBB453"/>
</g>
<path style="mix-blend-mode:multiply" opacity="0.9" d="M570.784 336.919C570.211 337.089 565.057 337.768 558.566 340.654C558.439 340.768 558.248 340.824 557.993 340.824C554.748 342.352 551.312 344.389 547.876 346.936L546.54 341.673C546.54 341.673 543.294 332.166 543.485 322.828C543.676 313.321 544.822 299.23 545.012 294.476C545.012 292.778 545.012 290.911 545.012 288.873C544.822 283.78 544.44 278.517 544.44 278.517C544.44 278.517 541.576 276.989 542.149 274.612C542.276 274.16 542.785 273.65 543.676 273.084C543.676 273.084 543.294 275.122 544.631 276.48C544.631 276.48 555.703 272.235 567.92 271.387C566.775 271.556 556.657 274.273 551.694 282.592C546.349 291.25 547.876 310.944 551.694 322.149C555.512 333.184 570.784 336.919 570.784 336.919Z" fill="url(#paint47_linear_402_1355)"/>
<path d="M592.546 359.839L543.676 360.348C543.676 360.348 543.485 347.615 546.158 340.485L547.876 346.936C547.876 346.936 554.175 341.503 563.529 338.617C572.883 335.901 578.801 336.071 579.183 338.617C579.374 341.164 574.792 342.862 574.219 343.031C574.219 343.031 578.037 345.917 584.337 349.652C586.819 351.011 588.537 352.878 589.682 354.576C591.782 357.292 592.546 359.839 592.546 359.839Z" fill="#5E239D"/>
<path d="M461.972 358.82H408.33C408.33 358.82 409.475 355.595 411.575 352.369C411.703 352.143 411.83 351.916 411.957 351.69C414.439 348.294 423.602 347.955 428.565 344.729C433.719 341.334 435.247 339.127 435.247 339.127C435.247 339.127 432.192 335.561 433.719 333.524C435.247 331.317 447.082 336.41 450.327 342.013C450.327 342.013 457.009 345.918 460.636 344.729C460.636 344.729 462.545 351.69 461.972 358.82Z" fill="#5E239D"/>
<g style="mix-blend-mode:multiply" opacity="0.5">
<path d="M592.546 359.839L543.676 360.348C543.676 360.348 543.485 347.615 546.158 340.485L547.876 346.936C547.876 346.936 554.175 341.503 563.529 338.617C572.883 335.901 578.801 336.071 579.183 338.617C579.374 341.164 574.792 342.862 574.219 343.031C574.219 343.031 559.711 344.389 551.694 352.369C551.694 352.369 564.102 357.462 577.083 356.274C583.573 355.595 587.582 355.085 589.682 354.576C591.782 357.292 592.546 359.839 592.546 359.839Z" fill="#5E239D"/>
</g>
<g style="mix-blend-mode:multiply" opacity="0.5">
<path d="M461.972 358.82H408.33C408.33 358.82 409.475 355.595 411.575 352.369C425.32 357.462 447.273 354.746 447.273 354.746C444.41 345.918 435.247 339.127 435.247 339.127C435.247 339.127 432.192 335.561 433.719 333.524C435.247 331.317 447.082 336.41 450.327 342.013C450.327 342.013 457.009 345.918 460.636 344.729C460.636 344.729 462.545 351.69 461.972 358.82Z" fill="#5E239D"/>
</g>
<path style="mix-blend-mode:multiply" opacity="0.5" d="M448.989 121.306C448.989 121.872 448.989 122.494 448.989 123.173C448.989 123.173 448.798 122.833 448.607 121.985C448.735 121.759 448.862 121.532 448.989 121.306Z" fill="url(#paint48_linear_402_1355)"/>
<path style="mix-blend-mode:multiply" opacity="0.5" d="M465.789 92.4446C465.98 83.6163 466.935 74.4485 468.08 67.318C467.125 79.0324 468.653 93.1236 466.171 107.554C463.689 123.174 455.862 131.662 456.244 145.244C456.435 158.147 461.017 167.655 461.398 168.334C460.444 167.485 446.318 151.186 449.372 130.644C450.708 122.834 452.999 115.364 455.481 108.573C451.472 120.627 451.09 137.774 451.09 137.774C451.09 137.774 465.789 109.762 465.789 92.4446Z" fill="url(#paint49_linear_402_1355)"/>
<path style="mix-blend-mode:multiply" opacity="0.5" d="M503.016 41.1727C503.016 41.1727 505.879 33.3631 509.125 30.1374L499.771 30.6468C499.771 30.6468 500.343 33.0236 499.389 35.0609C498.625 37.268 487.362 35.5702 487.362 35.5702C487.362 35.5702 496.716 38.2866 501.68 41.003L503.016 41.1727Z" fill="url(#paint50_linear_402_1355)"/>
<path style="mix-blend-mode:multiply" opacity="0.5" d="M579.755 108.064C582.81 120.288 585.1 133.869 580.9 143.886C580.9 143.886 578.228 136.246 573.456 127.588C569.829 124.362 565.056 119.948 560.284 115.873C550.548 107.215 553.411 94.1423 549.593 71.2228C546.73 54.5849 537.185 43.21 528.595 36.2493C530.504 37.4377 540.43 44.9078 546.539 55.264C553.602 66.8086 557.038 85.1442 563.529 100.594C570.21 116.043 581.855 123.004 581.855 123.004C581.855 123.004 581.282 116.043 579.755 108.064Z" fill="url(#paint51_linear_402_1355)"/>
<g style="mix-blend-mode:multiply" opacity="0.5">
<path d="M601.519 131.323C595.029 143.377 586.248 147.112 586.248 147.112C586.248 147.112 586.629 137.435 585.866 126.569C585.866 126.569 585.866 126.456 585.866 126.23C585.866 126.23 585.866 126.173 585.866 126.06C585.866 126.06 585.866 126.003 585.866 125.89C585.739 125.777 585.675 125.607 585.675 125.381C585.675 125.041 585.611 124.645 585.484 124.192C585.357 123.74 585.229 123.174 585.102 122.495C583.384 114.345 579.566 95.84 577.275 87.0118C577.021 85.9931 576.83 85.0311 576.703 84.1256C575.939 81.5224 575.239 78.806 574.603 75.9764C572.694 67.8273 570.785 60.0177 568.494 55.264C565.631 49.3219 561.431 44.9078 560.477 43.8891C562.004 45.2473 570.976 53.5662 574.221 58.1502C577.657 63.0736 575.748 71.5623 576.13 76.9951C576.703 82.4279 588.92 95.161 591.402 103.65C593.883 112.138 595.22 136.416 595.22 136.416C595.22 136.416 602.092 130.304 604.383 119.608C606.483 108.913 601.519 103.48 594.647 94.6516C587.966 85.9931 585.866 76.8253 585.866 76.8253C585.866 76.8253 589.302 87.8607 598.083 96.1796C602.474 100.254 604.956 104.329 606.483 107.215V107.385C606.674 109.762 607.246 120.627 601.519 131.323Z" fill="#5E239D"/>
</g>
<path style="mix-blend-mode:multiply" opacity="0.5" d="M613.163 122.495C610.681 129.116 605.336 135.737 598.846 139.812C600.182 138.793 605.527 134.549 608.391 124.362C609.727 124.192 611.636 123.683 613.163 122.495Z" fill="url(#paint52_linear_402_1355)"/>
<path d="M591.782 105.347C587.392 111.629 581.092 113.497 581.092 113.497C581.092 113.497 580.901 112.478 580.71 110.95C580.71 110.837 580.647 110.667 580.52 110.441C580.329 108.573 579.756 106.196 578.992 103.819C578.865 103.367 578.738 102.971 578.611 102.631C578.356 101.612 578.102 100.65 577.847 99.7448C576.893 96.1796 576.129 92.7841 576.129 92.7841C576.129 92.7841 579.565 87.6909 588.156 90.0677C594.455 91.7655 595.41 99.9146 591.782 105.347Z" fill="url(#paint53_linear_402_1355)"/>
<path d="M585.101 97.0285C585.101 97.0285 587.201 99.5751 586.055 104.499C585.483 107.385 582.81 109.592 580.71 110.95C580.71 110.837 580.647 110.667 580.519 110.441C581.856 109.082 583.192 107.385 583.192 105.347C583.192 101.273 581.283 100.763 581.283 100.763L578.61 102.631C578.356 101.612 578.101 100.65 577.847 99.7448C578.992 98.2169 580.519 96.3493 582.81 95.5005C587.01 93.633 589.873 97.368 590.064 97.7076C589.873 97.5378 587.582 96.1796 585.101 97.0285Z" fill="url(#paint54_linear_402_1355)"/>
<g style="mix-blend-mode:soft-light">
<path d="M535.659 41.1727C535.659 41.1727 545.586 51.1895 548.831 52.8872C552.076 54.5849 567.157 55.0942 567.157 55.0942V52.5476C567.157 52.5476 571.166 58.6595 572.884 68.6762C572.884 68.6762 570.402 63.2434 569.257 62.055C567.921 60.8666 551.694 61.3759 551.694 61.3759L552.076 67.318C552.076 67.318 547.877 52.7174 535.659 41.1727Z" fill="#6630A2"/>
</g>
<g style="mix-blend-mode:soft-light">
<path d="M570.21 53.3965C570.21 53.3965 572.692 54.9244 575.555 55.9431C578.228 57.1315 582.809 55.9431 582.809 55.9431L585.291 64.9411L585.864 67.4877L576.891 65.1109L576.128 68.6761C576.128 68.6761 576.7 62.5643 575.555 59.6781C574.41 56.9617 570.21 53.3965 570.21 53.3965Z" fill="#EED9FF"/>
</g>
<path d="M502.251 43.3798C502.251 43.3798 506.833 25.7232 517.523 24.1953C517.523 24.1953 537.949 31.3258 545.776 49.3219C552.075 63.5829 551.311 84.9745 551.311 84.9745C551.311 84.9745 550.166 63.9225 541.958 51.0196C533.558 38.2866 523.059 32.0049 519.432 31.156C515.041 30.3072 502.251 43.3798 502.251 43.3798Z" fill="#5E239D"/>
<path d="M499.578 39.9843C499.578 39.9843 490.987 32.1747 483.542 32.5143C483.542 32.5143 474.188 35.74 470.561 45.0776C466.934 54.4151 467.698 75.4671 467.698 75.4671C467.698 75.4671 468.08 54.9245 473.425 46.0962C478.961 37.2679 482.397 35.0609 486.215 35.4004C489.842 35.5702 496.142 38.7959 499.578 39.9843Z" fill="#5E239D"/>
<path fill-rule="evenodd" clip-rule="evenodd" d="M268.212 51.0197C268.976 44.9078 270.885 38.9657 273.366 33.5329C281.957 14.3484 297.229 0.257166 297.229 0.257166C297.229 0.257166 297.228 -0.421921 297.419 0.42695L329.872 12.1414C331.017 15.1973 331.972 18.1966 332.735 21.1394L335.408 22.3278C335.535 22.441 335.599 22.5542 335.599 22.6674L411.576 46.0962C413.294 43.7194 414.63 42.3612 414.63 42.3612C414.63 42.3612 414.694 42.5309 414.821 42.8705C415.012 42.8705 417.112 42.8705 417.303 43.3798C417.876 44.9078 419.021 48.4731 420.166 53.5663L420.357 54.4152C420.612 55.8865 420.866 57.4145 421.121 58.999L423.793 59.6782L472.09 71.7321C472.09 71.3925 472.027 71.053 471.899 70.7135L474.381 67.1482L474.572 66.8086L476.481 67.6575C477.435 70.3739 478.008 73.5996 478.581 77.6742L486.217 79.3719C486.217 79.3719 490.416 92.6144 481.826 101.273L475.717 100.594C474.381 103.31 473.045 105.857 471.709 108.234L470.754 108.064L470.181 107.215L468.845 105.347L467.891 103.65C468.145 103.197 468.336 102.801 468.463 102.461L415.394 95.84C410.812 104.499 405.849 110.61 405.849 110.61C405.658 110.61 404.513 111.459 403.558 110.441C403.304 110.667 403.176 110.78 403.176 110.78C403.176 110.61 402.604 109.252 401.84 107.045C401.586 106.366 401.331 105.63 401.077 104.838L400.313 104.668L394.586 104.159L393.25 106.027L389.814 111.29L386.759 111.12L383.896 110.95L369.96 109.931V110.78L369.769 111.969L369.197 118.929H364.233L364.043 121.136L363.47 130.304C370.151 130.474 378.742 131.323 387.905 132.342V132.511L387.714 135.058H379.123L379.887 136.416L380.269 137.265L384.087 144.905L377.596 144.735L373.397 137.265L368.242 137.095L368.433 144.395H367.097L361.752 144.226V144.056L361.179 137.095L349.916 136.925L347.625 140.66L345.907 143.886L343.426 143.716H339.226L324.718 173.087L332.163 157.298L340.944 137.265L335.79 137.435V137.095V132.172C335.79 132.172 343.807 130.304 359.652 130.304L359.843 121.136V118.929L355.643 120.288L355.834 119.439L356.025 111.629L338.081 110.101L336.935 100.084L336.744 98.3867L318.609 96.5191C318.227 97.0851 317.909 97.5944 317.655 98.0471C315.173 102.461 313.455 104.838 313.455 104.838L312.309 104.668L279.666 98.896L277.375 98.3867C277.375 98.3867 264.585 79.372 268.212 51.0197ZM471.518 71.053V69.525C471.645 69.8646 471.772 70.2608 471.899 70.7135L471.518 71.053ZM379.123 107.894L380.651 104.838V104.668L351.062 101.612V101.782L351.252 105.687L379.123 107.894Z" fill="#6E3BA7"/>
<path d="M360.988 131.832H364.806V130.983L365.57 121.136L365.761 118.25L361.37 117.911L361.179 121.136L360.988 130.983V131.832Z" fill="#3E2849"/>
<path d="M337.127 136.925H342.663H349.726H349.917L361.18 137.095H368.243L373.397 137.265H380.27H380.651L389.051 137.435V137.265L388.478 132.511C388.351 132.511 388.16 132.511 387.906 132.511C379.124 131.493 371.298 131.153 364.807 130.983C363.534 130.983 362.262 130.983 360.989 130.983C345.145 130.983 337.127 132.851 337.127 132.851V136.586V136.925Z" fill="#3E2849"/>
<path d="M373.015 136.586L373.396 137.265L377.596 144.735L378.932 146.942L380.841 150.677L428.948 235.734H430.093L389.05 153.903L385.614 147.112L380.651 137.265L380.078 136.416H379.887L373.015 136.586Z" fill="#3E2849"/>
<path d="M292.838 235.734H293.983L344.762 146.093L345.907 143.886L347.625 140.66L349.725 136.925H349.916L342.853 136.586L342.662 136.925L341.135 139.812L339.226 143.716L338.081 145.754L292.838 235.734Z" fill="#3E2849"/>
<path d="M361.179 136.077V136.246V137.095L361.751 144.056V144.226L368.815 235.734H369.96L368.433 146.093V144.395L368.242 137.095V136.246H366.333L361.179 136.077Z" fill="#3E2849"/>
<path style="mix-blend-mode:multiply" opacity="0.5" d="M342.663 136.925L341.136 139.812C343.299 140.038 345.463 140.321 347.626 140.66L349.917 136.925L361.18 137.095L361.753 144.056C364.043 144.622 366.271 145.301 368.434 146.093L368.243 137.095L373.397 137.265L378.933 146.942L380.842 150.677C383.769 151.696 386.506 152.771 389.051 153.903L385.615 147.112L380.651 137.265L389.051 137.435V137.265L387.906 136.077L366.334 136.246H361.18L337.127 136.586V136.925H342.663Z" fill="url(#paint55_linear_402_1355)"/>
<path d="M448.803 99.7448L471.138 102.122L473.238 102.461H473.619H474.383L475.147 102.631L477.055 102.801L483.164 103.48C491.755 94.9911 486.791 80.7301 486.791 80.7301L479.919 79.0324L478.201 78.6928H477.819L476.483 78.3533L474.574 77.8439H474.383L474.001 77.6742L451.093 72.5809L449.375 93.9725L448.803 99.7448Z" fill="#3E2849"/>
<path d="M403.56 96.5191L409.859 97.368H410.814L412.15 97.5378L414.441 97.8773L416.731 98.2169L469.992 104.668L471.901 104.838L472.664 105.008L473.046 104.499L474.382 102.461L475.91 100.594L479.155 96.0098L478.2 78.6928L478.009 75.4671V75.1276L477.246 74.9578L475.719 74.6183L473.619 74.109L425.322 61.8852L422.458 61.2061L419.977 60.6968L418.45 60.1874L415.968 59.6781L415.204 59.5084L415.013 59.8479L407.568 83.4465L404.514 93.633L403.56 96.5191Z" fill="url(#paint56_radial_402_1355)"/>
<path style="mix-blend-mode:multiply" opacity="0.5" d="M403.56 96.5191L409.859 97.368H410.814L412.15 97.5378L414.441 97.8773L416.731 98.2169L469.992 104.668L471.901 104.838L472.664 105.008L473.046 104.499L473.619 102.461L474.382 99.7448L476.864 91.2561L477.437 89.3886L477.246 88.37L476.864 87.0118L476.673 85.9932L474.573 77.844L473.619 74.2787C473.619 74.3919 473.619 74.5051 473.619 74.6183C473.746 75.6369 473.873 76.6555 474.001 77.6742C474.191 88.2002 469.228 96.8587 469.228 96.8587L449.375 93.9725L427.231 90.9166C427.231 90.9166 428.758 76.4858 425.322 61.8852L422.458 61.2061L419.977 60.6968L418.45 60.1874L415.968 59.6781L415.204 59.5084L415.013 59.8479L407.568 83.4465L404.514 93.633L403.56 96.5191Z" fill="url(#paint57_linear_402_1355)"/>
<path d="M308.683 97.0285L316.891 98.0471H317.655L318.418 98.2168L320.136 98.3866L336.935 100.084L338.081 100.254L351.062 101.612L380.842 104.838L390.196 105.687L393.25 106.026L395.923 106.366L401.65 107.045H401.84H402.413H402.604H403.177L403.368 107.215C403.558 106.875 407.186 102.971 410.813 97.368C413.485 93.2934 416.158 88.37 417.303 83.4465C418.83 77.844 417.876 69.1855 416.349 61.8852C416.221 61.0929 416.094 60.3572 415.967 59.6781C415.012 56.1129 414.249 52.8871 413.676 50.8499C413.676 50.7367 413.676 50.6235 413.676 50.5103C413.294 49.4916 413.04 48.8126 412.912 48.473C412.912 48.473 412.912 48.4164 412.912 48.3032L336.935 24.8744L331.781 23.3464L328.727 22.3278L326.818 21.8185L325.673 26.2326L315.173 70.0343L308.683 97.0285Z" fill="url(#paint58_radial_402_1355)"/>
<path style="mix-blend-mode:multiply" opacity="0.5" d="M301.43 96.3493L308.684 97.0284L311.356 97.368L316.892 97.8773V98.047L316.701 98.3866L318.229 98.5564L319.947 98.7262L338.082 100.594L351.063 101.952L380.843 104.838L390.197 105.857L395.924 106.366L401.651 107.045H402.414H402.605H403.178L403.369 107.215C403.56 106.875 407.187 102.971 410.814 97.368C413.486 93.2934 416.159 88.3699 417.304 83.4465C418.831 77.8439 417.877 69.1854 416.35 61.8852C416.223 61.0929 416.095 60.3572 415.968 59.6781C415.014 56.1128 414.25 52.8871 413.677 50.8498C414.441 53.7926 414.886 56.7919 415.014 59.8478C415.395 67.997 413.677 76.3159 410.241 83.786C409.732 85.1442 409.096 86.4458 408.332 87.6909C407.187 89.8413 405.914 91.822 404.514 93.6329C404.387 93.7461 404.26 93.8593 404.132 93.9725C403.878 94.312 403.623 94.7082 403.369 95.1609L397.833 94.312L386.761 92.6143L342.473 86.1628C342.473 83.786 343.236 68.1668 343.236 66.1295C343.236 47.9637 339.991 34.212 336.937 24.8744C336.937 24.7612 336.873 24.648 336.746 24.5348L331.591 22.8371L328.537 21.9882L325.865 21.1393L324.528 20.63L322.237 25.2139L320.71 28.4396L309.256 69.1854L301.43 96.3493Z" fill="url(#paint59_linear_402_1355)"/>
<path style="mix-blend-mode:multiply" opacity="0.5" d="M476.482 88.5397L477.055 86.3326L476.673 85.1443L476.482 88.5397Z" fill="url(#paint60_linear_402_1355)"/>
<path d="M278.711 100.763L281.002 101.103L313.645 106.875L314.791 107.215C314.791 107.215 317.081 104.159 319.945 98.7262C320.072 98.613 320.136 98.4998 320.136 98.3866C327.772 84.1256 339.798 54.9244 331.78 23.3464C331.78 23.2332 331.717 23.0635 331.589 22.8371C330.826 19.8944 329.871 16.895 328.726 13.8391L298.946 3.65262L297.992 3.31308L295.701 14.1786L294.937 18.0835L285.774 65.1109L281.384 86.842L280.811 90.0677L278.711 100.763Z" fill="#7B598E"/>
<path d="M278.714 100.763C278.714 100.763 302.958 75.4671 304.867 48.473C304.994 46.3225 305.058 44.172 305.058 42.0215C305.44 22.6673 300.476 7.89694 298.949 3.65259C298.695 2.86031 298.567 2.46417 298.567 2.46417C298.567 2.46417 283.296 16.5554 274.896 35.7399C272.414 41.3425 270.505 47.2846 269.742 53.3964C265.924 81.579 278.714 100.763 278.714 100.763Z" fill="#3E2849"/>
<path d="M295.129 13.16C295.129 13.16 302.764 22.1581 297.801 52.7175C294.365 73.9392 280.429 90.4073 280.429 90.4073C280.429 90.4073 264.776 75.1276 272.03 47.9637C279.093 21.8185 295.129 13.16 295.129 13.16Z" fill="#3E2849"/>
<path d="M272.795 62.2248C272.795 79.2022 282.912 88.37 282.912 88.37C282.912 88.37 295.893 73.26 299.139 53.9058C301.239 40.4936 300.857 31.6654 299.711 26.0628C298.566 19.6114 296.466 17.2346 296.466 17.2346C296.466 17.2346 281.003 25.3837 274.513 49.3219C273.177 54.0756 272.795 58.32 272.795 62.2248Z" fill="url(#paint61_radial_402_1355)"/>
<path d="M288.448 29.4583C287.685 37.7773 280.431 39.8146 280.431 39.8146C280.431 39.8146 282.531 31.1561 288.448 29.4583Z" fill="white"/>
<path style="mix-blend-mode:screen" d="M294.557 19.6115C268.786 43.7194 274.322 63.2434 275.849 66.1296C280.621 41.5123 294.557 19.6115 294.557 19.6115Z" fill="url(#paint62_linear_402_1355)"/>
<path style="mix-blend-mode:multiply" opacity="0.5" d="M272.795 62.2248C272.795 79.2022 282.912 88.37 282.912 88.37C282.912 88.37 295.893 73.26 299.139 53.9058C301.239 40.4936 300.857 31.6654 299.711 26.0628L299.33 25.0442C301.048 63.9225 279.285 70.3739 275.849 66.9784C274.704 65.9598 273.559 64.262 272.795 62.2248Z" fill="url(#paint63_linear_402_1355)"/>
<path style="mix-blend-mode:screen" d="M329.682 27.4211L306.393 20.6301L302.002 6.36902L327.009 15.0275L329.682 27.4211Z" fill="url(#paint64_linear_402_1355)"/>
<path d="M403.749 110.44C404.131 111.629 404.513 112.308 404.894 112.647C406.04 113.666 407.185 112.817 407.185 112.987C407.185 112.987 412.339 106.875 416.73 98.2165C420.166 91.5953 423.03 83.6159 423.411 75.8063C423.411 74.3349 423.411 72.9201 423.411 71.5619C423.221 67.8269 423.03 64.4314 422.457 61.2057C422.202 59.6211 421.948 58.0932 421.693 56.6218C421.693 56.3954 421.63 56.1125 421.502 55.7729C420.357 50.6797 419.212 47.1144 418.639 45.5865C418.448 45.0771 416.348 45.0771 416.157 45.0771C416.157 45.0771 416.348 45.4167 416.348 45.7562C416.348 46.2656 416.348 47.1144 415.394 48.3028C415.585 49.1517 416.157 50.5099 416.73 52.717C417.303 54.7543 417.875 57.3009 418.448 60.187C419.021 63.5825 419.403 67.3176 419.593 71.5619C419.593 72.6938 419.593 73.9387 419.593 75.2969C419.212 83.2763 415.585 91.4255 412.149 97.5374C411.003 99.5747 409.858 101.442 408.712 102.8C406.803 105.856 405.276 107.554 405.276 107.554C405.276 107.554 403.94 111.289 403.749 110.44Z" fill="#7B598E"/>
<path d="M402.224 106.366C402.351 106.592 402.414 106.819 402.414 107.045C403.56 110.78 404.514 112.817 404.705 112.987C404.705 112.987 404.769 112.874 404.896 112.648C406.042 111.289 410.432 105.517 414.441 97.8773C417.877 91.4259 420.741 83.6163 420.932 75.8067C421.059 74.3353 421.059 72.9205 420.932 71.5623C420.932 67.6575 420.55 63.9225 419.977 60.6967C419.023 53.2267 417.114 47.9637 416.35 45.7566C416.35 45.6434 416.35 45.5302 416.35 45.4171C416.223 45.3039 416.159 45.1907 416.159 45.0775C416.032 44.8512 415.968 44.738 415.968 44.738C415.968 44.738 414.823 45.9264 412.914 48.3032C413.296 48.9823 413.678 50.5103 414.441 52.7174C414.823 54.5849 415.396 56.9618 415.968 59.6781C416.096 60.3572 416.223 61.0929 416.35 61.8852C416.732 64.7713 417.114 67.9971 417.114 71.3925C417.114 72.6376 417.114 73.8825 417.114 75.1276C416.923 83.1069 413.296 91.2561 409.86 97.368C408.523 99.4053 407.378 101.273 406.232 102.971C404.896 105.008 403.751 106.366 403.178 107.045C402.924 107.385 402.796 107.554 402.796 107.554C402.796 107.554 402.733 107.385 402.605 107.045C402.478 106.932 402.351 106.706 402.224 106.366Z" fill="#3E2849"/>
<path style="mix-blend-mode:screen" d="M417.685 50.001L419.594 56.2827L421.693 56.6222L421.884 56.792L421.503 55.7733L419.785 50.3406L417.685 50.001Z" fill="url(#paint65_linear_402_1355)"/>
<path d="M470.374 107.554L471.519 109.422L472.092 110.271L473.047 110.441C474.383 108.234 475.719 105.687 477.055 102.801C478.964 98.2169 480.492 93.1236 480.492 87.8606C480.492 86.7288 480.492 85.597 480.492 84.4651C480.364 82.541 480.173 80.7301 479.919 79.0324C479.346 74.9578 478.392 71.5623 477.628 68.8459L475.528 67.9971V68.1669L474.383 69.6948C474.892 71.053 475.337 72.6941 475.719 74.6183C475.974 75.7501 476.228 76.9951 476.483 78.3533C476.737 80.2774 476.928 82.3147 477.055 84.4651C477.183 85.3706 477.246 86.3893 477.246 87.5211C477.246 87.7475 477.246 88.0304 477.246 88.37C477.246 89.2754 477.119 90.2375 476.864 91.2561C476.483 94.312 475.528 97.1982 474.383 99.7448C474.001 100.65 473.619 101.556 473.237 102.461C472.728 103.254 472.283 104.046 471.901 104.838C471.392 105.857 470.883 106.762 470.374 107.554Z" fill="#7B598E"/>
<path d="M469.229 105.856L470.375 107.554L471.52 109.422C472.857 107.384 474.002 105.008 475.147 102.631C475.402 101.952 475.656 101.273 475.911 100.593C477.438 96.6887 478.584 92.2745 478.584 87.8604C478.584 86.7286 478.52 85.5968 478.393 84.4649C478.265 82.4276 478.074 80.5035 477.82 78.6926C477.565 77.3344 477.374 76.0895 477.247 74.9576C476.675 72.411 476.102 70.0342 475.529 68.1667L474.384 69.6946L473.047 71.9017C473.175 72.5808 473.366 73.3165 473.62 74.1088C473.62 74.2219 473.62 74.3917 473.62 74.6181C473.875 75.6367 474.129 76.7119 474.384 77.8438C474.766 79.881 475.02 82.0881 475.147 84.4649C475.147 85.3704 475.147 86.3891 475.147 87.5209C475.147 92.6141 473.429 97.7074 471.138 102.121C470.757 103.027 470.375 103.876 469.993 104.668C469.739 105.121 469.484 105.517 469.229 105.856Z" fill="#3E2849"/>
<path style="mix-blend-mode:screen" d="M479.346 75.6369L477.246 75.4671L476.101 70.2041L478.01 70.5437L479.346 75.6369Z" fill="url(#paint66_linear_402_1355)"/>
<path style="mix-blend-mode:multiply" opacity="0.5" d="M281.768 99.7448L314.411 105.687C317.656 100.084 323.956 88.3699 328.537 72.2414L302.575 68.1668L281.768 99.7448Z" fill="url(#paint67_linear_402_1355)"/>
<path d="M337.89 100.084L338.081 100.254V100.594L339.417 109.592L356.407 110.95L369.77 111.969L371.297 112.138L385.423 113.157L386.759 111.12L390.196 105.857V105.687L397.831 94.3121L405.276 82.9372L392.104 81.4092L389.814 86.1629L388.287 89.3886L386.759 92.6143L380.842 104.838L379.314 108.064L351.443 105.857L351.062 101.952V101.612V101.443L337.89 100.084Z" fill="#25182D"/>
<path d="M385.423 113.157L391.15 113.497L395.922 106.366L404.131 93.9725L404.513 93.633L408.331 87.6909L410.812 83.9559L410.239 83.7861L407.567 83.4465L405.276 82.9372L397.831 94.3121L390.195 105.687V105.857L385.423 113.157Z" fill="#3E2849"/>
<path d="M398.024 86.5024L381.225 85.8233L380.461 88.5397L396.305 90.2375L398.024 86.5024Z" fill="#25182D"/>
<path d="M355.645 121.136H370.725L371.298 112.138L371.489 110.95L356.408 109.762V110.95L355.645 121.136Z" fill="#25182D"/>
<path d="M392.296 45.4171C385.805 48.8126 380.842 41.3425 380.842 41.3425L394.777 44.738L392.296 45.4171Z" fill="white"/>
<path style="mix-blend-mode:multiply" opacity="0.7" d="M342.851 540.479L0 519.596L202.16 473.588L211.705 472.569L193.379 477.832L281.383 479.19L334.643 471.381L346.097 472.06L285.2 482.246L180.78 481.907L104.23 503.807C104.23 503.807 237.667 511.108 318.226 515.522L342.851 540.479Z" fill="url(#paint68_linear_402_1355)"/>
<path style="mix-blend-mode:multiply" opacity="0.7" fill-rule="evenodd" clip-rule="evenodd" d="M651.15 555.589L679.021 581.564L352.014 566.115L493.087 474.267L508.74 473.078L494.805 482.076H515.994L523.248 475.455L532.221 477.493L528.212 482.076L559.901 481.907L562.573 476.983L580.899 477.493L578.99 481.907L612.97 481.737L622.897 471.72L637.214 472.06L625.569 488.188L576.127 488.358L554.937 537.932C582.045 539.29 608.77 540.479 630.724 541.667L666.803 475.965L684.938 476.474L651.15 555.589ZM461.398 533.348L509.122 488.698L478.197 488.867L413.864 530.971C413.864 530.971 433.145 531.82 461.398 533.348ZM529.93 536.744L556.464 488.528L522.676 488.698L482.969 534.367C497.668 535.046 513.704 535.895 529.93 536.744Z" fill="url(#paint69_linear_402_1355)"/>
<path style="mix-blend-mode:multiply" opacity="0.7" d="M419.401 473.418L302.572 548.119L331.78 546.76L430.283 477.492L419.401 473.418Z" fill="url(#paint70_linear_402_1355)"/>
<path d="M416.729 357.123C462.162 352.539 664.131 365.951 664.131 365.951L541.575 364.423L416.729 357.123Z" fill="#EA7E34"/>
<path d="M523.438 475.625H523.63C523.438 476.131 523.438 475.625 523.438 475.625Z" fill="url(#paint71_linear_402_1355)"/>
<path d="M680.739 476.134H674.058C673.676 474.663 673.231 472.795 672.722 470.532C672.722 470.532 672.658 470.532 672.531 470.532C665.849 444.726 642.751 381.061 640.46 381.061C639.887 381.061 637.978 380.891 634.924 380.721C618.698 380.042 570.973 377.665 553.984 377.835C553.984 377.835 553.92 377.835 553.793 377.835C550.357 377.835 548.257 378.005 547.875 378.344C547.302 378.854 545.775 386.154 544.057 396.34C539.857 420.448 533.558 461.703 531.458 475.625H523.631C524.585 469.174 531.839 425.202 536.994 397.359C539.475 384.456 541.575 374.949 542.339 374.27C544.057 373.081 584.718 374.1 615.643 375.119C615.771 375.119 615.898 375.119 616.025 375.119C616.28 375.119 616.534 375.119 616.789 375.119C616.916 375.119 617.043 375.119 617.17 375.119C617.298 375.119 617.489 375.119 617.743 375.119C618.125 375.119 618.507 375.119 618.889 375.119C619.652 375.232 620.479 375.288 621.37 375.288C621.498 375.288 621.625 375.288 621.752 375.288C622.007 375.288 622.197 375.288 622.325 375.288C623.216 375.288 624.106 375.345 624.997 375.458C628.052 375.571 630.661 375.685 632.824 375.798C633.206 375.798 633.588 375.854 633.97 375.967C634.097 375.967 634.16 375.967 634.16 375.967C635.433 375.967 636.515 376.024 637.406 376.137C637.533 376.137 637.66 376.137 637.787 376.137C639.442 376.25 640.46 376.307 640.842 376.307C641.414 376.307 643.705 380.891 646.951 388.361C647.078 388.814 647.269 389.323 647.523 389.889C647.65 389.889 647.714 389.946 647.714 390.059C648.096 391.077 648.541 392.153 649.05 393.284C649.178 393.624 649.305 393.907 649.432 394.133C649.559 394.473 649.687 394.812 649.814 395.152C649.941 395.378 650.069 395.661 650.196 396.001C650.196 396.114 650.196 396.227 650.196 396.34C650.578 397.359 651.023 398.321 651.532 399.227C651.532 399.453 651.596 399.679 651.723 399.906C652.105 400.811 652.486 401.717 652.868 402.622C663.749 429.786 678.449 469.173 680.548 475.455C680.548 475.568 680.548 475.625 680.548 475.625C680.548 475.738 680.548 475.795 680.548 475.795C680.548 475.908 680.612 475.965 680.739 475.965C680.739 476.078 680.739 476.134 680.739 476.134Z" fill="url(#paint72_linear_402_1355)"/>
<path d="M680.739 476.134H667.758C663.94 456.95 638.932 387.003 634.541 381.4C634.414 381.174 634.287 381.061 634.16 381.061C631.869 381.061 578.799 378.175 553.983 377.835C553.983 377.835 553.919 377.835 553.792 377.835C546.92 377.835 542.147 377.835 541.765 378.344C541.002 379.023 539.475 386.494 537.566 397.359C533.366 421.467 527.448 461.873 525.348 475.625H522.294C522.294 475.625 529.93 427.749 535.657 397.529C538.329 384.117 540.429 374.27 541.193 373.591C543.102 372.063 591.78 373.93 621.37 375.288C621.497 375.288 621.624 375.288 621.751 375.288C622.006 375.288 622.197 375.288 622.324 375.288C623.215 375.288 624.106 375.345 624.997 375.458C628.051 375.571 630.66 375.685 632.823 375.798C633.205 375.798 633.587 375.854 633.969 375.968C634.096 375.968 634.16 375.968 634.16 375.968C635.432 375.968 636.514 376.024 637.405 376.137C637.532 376.137 637.659 376.137 637.787 376.137C639.441 376.25 640.459 376.307 640.841 376.307C641.414 376.307 643.705 380.891 646.95 388.361C647.077 388.814 647.268 389.323 647.522 389.889C647.65 389.889 647.713 389.946 647.713 390.059C648.095 391.077 648.541 392.153 649.05 393.285C649.177 393.624 649.304 393.907 649.431 394.133C649.559 394.473 649.686 394.812 649.813 395.152C649.94 395.378 650.068 395.661 650.195 396.001C650.195 396.114 650.195 396.227 650.195 396.34C650.577 397.359 651.022 398.321 651.531 399.227C651.531 399.453 651.595 399.679 651.722 399.906C652.104 400.811 652.486 401.717 652.868 402.622C663.749 429.786 678.448 469.174 680.548 475.455C680.548 475.568 680.548 475.625 680.548 475.625C680.548 475.738 680.548 475.795 680.548 475.795C680.548 475.908 680.611 475.965 680.739 475.965C680.739 476.078 680.739 476.134 680.739 476.134Z" fill="url(#paint73_linear_402_1355)"/>
<g style="mix-blend-mode:screen" opacity="0.4">
<path d="M680.738 476.134H674.438C674.438 475.795 673.674 473.927 672.72 470.532C672.72 470.532 672.656 470.532 672.529 470.532C666.611 452.536 647.903 397.868 640.458 381.061C639.122 378.344 638.168 376.477 637.786 376.137C637.658 376.024 637.595 375.967 637.595 375.967C637.213 375.967 636.068 375.967 634.159 375.967C634.159 375.967 634.095 375.967 633.968 375.967C633.586 375.854 633.204 375.798 632.822 375.798C629.004 375.628 623.468 375.458 616.787 375.119C616.533 375.119 616.278 375.119 616.023 375.119C616.405 375.119 616.787 375.119 617.169 375.119C617.296 375.119 617.487 375.119 617.742 375.119C619.269 375.232 620.796 375.288 622.323 375.288C623.214 375.288 624.105 375.345 624.996 375.458C628.305 375.571 631.104 375.685 633.395 375.798H633.586C637.786 375.967 640.267 376.137 640.84 376.137C641.413 376.137 644.085 381.57 647.521 389.889C647.649 389.889 647.712 389.946 647.712 390.059C648.094 391.077 648.54 392.153 649.049 393.284C649.176 393.624 649.303 393.907 649.43 394.133C649.558 394.473 649.685 394.812 649.812 395.152C649.94 395.378 650.067 395.661 650.194 396.001C650.194 396.114 650.194 396.227 650.194 396.34C650.576 397.359 651.021 398.321 651.53 399.227C651.53 399.453 651.594 399.679 651.721 399.906C662.793 427.749 678.638 470.532 680.547 475.625C680.547 475.738 680.547 475.795 680.547 475.795C680.547 475.908 680.61 475.965 680.738 475.965C680.738 476.078 680.738 476.134 680.738 476.134Z" fill="#FFE6AE"/>
</g>
<path style="mix-blend-mode:multiply" opacity="0.7" d="M637.595 375.968L637.404 376.137L634.923 380.721L634.541 381.4C634.414 381.174 634.286 381.061 634.159 381.061C631.868 381.061 578.799 378.175 553.982 377.835C553.982 377.835 553.919 377.835 553.791 377.835C550.355 377.835 548.255 378.005 547.874 378.344C547.301 378.854 545.774 386.154 544.056 396.34L537.565 397.359H536.992L535.656 397.529C538.329 384.117 540.429 374.27 541.192 373.591C543.101 372.063 591.78 373.93 621.369 375.288C621.496 375.288 621.624 375.288 621.751 375.288C622.005 375.288 622.196 375.288 622.324 375.288C623.214 375.288 624.105 375.345 624.996 375.458C628.305 375.571 631.105 375.685 633.396 375.798H633.586L637.595 375.968Z" fill="url(#paint74_linear_402_1355)"/>
<path d="M704.219 228.773C704.219 230.301 680.548 308.567 680.548 308.567L582.236 307.039L571.546 306.869H562.955L561.046 306.699H552.456C552.456 306.699 552.647 304.662 553.029 301.097C554.365 291.589 557.038 271.726 559.519 254.409C559.774 252.824 560.028 251.24 560.283 249.655C560.41 248.75 560.537 247.844 560.665 246.939C562.574 234.036 564.483 223.68 565.437 222.491C565.819 221.982 569.637 221.812 575.936 221.812C579.945 221.642 584.909 221.812 590.445 221.982H591.017C631.106 223.001 704.219 227.754 704.219 228.773Z" fill="url(#paint75_linear_402_1355)"/>
<path d="M713 228.943C713 229.113 712.427 230.98 711.664 233.866C706.7 251.183 689.138 308.737 689.138 308.737L663.939 308.397L652.867 308.227L626.905 307.888L624.996 307.718L599.989 307.378L582.235 307.209L571.354 307.039L562.955 306.869H562.573H561.046C561.046 306.869 561.046 306.813 561.046 306.699C561.237 305.171 565.627 270.707 569.445 246.43C569.445 246.43 569.445 246.373 569.445 246.26C570.591 239.469 571.545 233.357 572.309 229.113C573.072 226.057 573.454 223.85 573.836 223.001C573.963 222.887 574.027 222.774 574.027 222.661C574.154 222.661 574.218 222.661 574.218 222.661C574.981 222.152 577.845 221.982 582.045 221.982C584.526 221.982 587.39 221.982 590.444 221.982H591.017C592.417 221.982 593.944 221.982 595.598 221.982C608.579 222.322 625.951 223.17 643.323 224.019C644.85 224.019 646.377 224.076 647.904 224.189C651.34 224.415 654.776 224.642 658.212 224.868C662.921 225.095 667.503 225.321 671.957 225.547C695.056 227.075 713 228.433 713 228.943Z" fill="url(#paint76_linear_402_1355)"/>
<path style="mix-blend-mode:multiply" opacity="0.4" d="M568.109 250.165L561.237 299.569L553.028 301.097C554.365 291.59 557.037 271.726 559.519 254.409L568.109 250.165Z" fill="url(#paint77_linear_402_1355)"/>
<path style="mix-blend-mode:multiply" opacity="0.4" d="M570.211 240.827L560.284 249.655C560.411 248.75 560.539 247.845 560.666 246.939L570.211 240.827Z" fill="url(#paint78_linear_402_1355)"/>
<path style="mix-blend-mode:multiply" opacity="0.7" d="M574.027 222.661C572.882 223.85 571.164 233.697 569.446 246.26C569.446 246.373 569.446 246.43 569.446 246.43C566.391 269.519 563.528 301.436 562.955 306.869H561.046C561.046 306.869 561.046 306.813 561.046 306.7H552.456C552.456 306.7 552.647 304.662 553.029 301.097C554.365 291.59 557.038 271.726 559.519 254.409C559.774 252.824 560.028 251.24 560.283 249.655C560.41 248.75 560.537 247.844 560.665 246.939C562.574 234.036 564.483 223.68 565.437 222.491C565.819 221.982 569.637 221.812 575.936 221.812C575.173 222.039 574.6 222.322 574.218 222.661C574.218 222.661 574.155 222.661 574.027 222.661Z" fill="url(#paint79_linear_402_1355)"/>
<path style="mix-blend-mode:multiply" opacity="0.4" d="M647.903 224.189L599.988 307.378L582.235 307.209L571.353 307.039L562.954 306.869H562.572L595.597 221.982C609.724 222.322 629.005 223.17 647.903 224.189Z" fill="url(#paint80_linear_402_1355)"/>
<path style="mix-blend-mode:multiply" opacity="0.4" d="M671.957 225.548C650.194 243.883 634.159 286.157 626.905 307.888L624.996 307.718L658.212 224.868C662.921 225.095 667.502 225.321 671.957 225.548Z" fill="url(#paint81_linear_402_1355)"/>
<path d="M664.13 365.951L662.794 373.251C662.794 373.251 595.216 371.384 563.145 370.195C562.254 370.082 561.364 370.025 560.473 370.025C559.837 370.025 559.2 370.025 558.564 370.025C555.637 369.912 552.837 369.799 550.164 369.686C549.146 369.686 548.128 369.629 547.11 369.516C546.856 369.516 546.665 369.516 546.537 369.516C546.155 369.516 545.774 369.516 545.392 369.516C544.628 369.516 543.865 369.516 543.101 369.516C542.21 369.403 541.32 369.346 540.429 369.346C540.174 369.346 539.92 369.346 539.665 369.346C539.41 369.346 539.156 369.346 538.901 369.346C535.656 369.177 533.747 369.177 533.365 369.177C531.456 369.516 527.257 382.419 527.257 382.419L414.818 379.363H409.664C409.664 379.363 413.291 357.802 416.727 357.123C418.445 356.783 486.596 362.216 547.301 363.574C597.507 364.762 664.13 365.951 664.13 365.951Z" fill="url(#paint82_linear_402_1355)"/>
<path style="mix-blend-mode:multiply" opacity="0.7" d="M563.337 369.856L563.146 370.195C562.256 370.082 561.365 370.025 560.474 370.025C559.838 370.025 559.201 370.025 558.565 370.025C555.638 369.912 552.838 369.799 550.165 369.686C549.147 369.686 548.129 369.629 547.111 369.516C546.857 369.516 546.666 369.516 546.538 369.516C546.157 369.516 545.775 369.516 545.393 369.516C544.629 369.516 543.866 369.516 543.102 369.516C542.211 369.403 541.321 369.346 540.43 369.346C540.175 369.346 539.921 369.346 539.666 369.346C539.412 369.346 539.157 369.346 538.903 369.346C535.657 369.177 533.748 369.177 533.367 369.177C531.458 369.516 527.258 382.419 527.258 382.419L414.819 379.363C416.156 375.288 418.828 366.8 419.974 365.611C420.928 364.423 508.932 367.649 546.538 369.177C556.847 369.516 563.337 369.856 563.337 369.856Z" fill="url(#paint83_linear_402_1355)"/>
<path d="M664.13 365.951L662.794 373.251C662.794 373.251 595.216 371.384 563.145 370.195C556.846 369.856 551.119 369.686 546.537 369.516L547.301 363.574C597.507 364.762 664.13 365.951 664.13 365.951Z" fill="url(#paint84_linear_402_1355)"/>
<path d="M517.14 370.704C517.14 370.704 634.732 373.591 640.841 372.912C646.95 372.232 678.257 272.745 678.257 272.745L684.175 273.594C684.175 273.594 651.913 373.251 649.05 375.798C646.186 378.344 516.758 373.591 516.758 373.591L517.14 370.704Z" fill="url(#paint85_linear_402_1355)"/>
<path style="mix-blend-mode:multiply" opacity="0.7" d="M590.446 270.707L585.292 307.039V307.209L574.602 307.039V306.869L587.201 272.575L590.446 270.707Z" fill="url(#paint86_linear_402_1355)"/>
<path style="mix-blend-mode:multiply" opacity="0.7" d="M678.256 272.745L666.993 308.397L655.921 308.228L678.256 272.745Z" fill="url(#paint87_linear_402_1355)"/>
<path d="M444.791 366.29C444.791 366.29 562.384 373.081 568.492 372.402C574.601 371.723 588.728 271.217 588.728 271.217L600.563 271.556C600.563 271.556 579.374 372.742 576.51 375.288C573.837 377.835 444.409 369.177 444.409 369.177L444.791 366.29Z" fill="url(#paint88_linear_402_1355)"/>
<path style="mix-blend-mode:multiply" opacity="0.7" d="M547.302 363.574L546.538 369.177V369.516C546.156 369.516 545.775 369.516 545.393 369.516C544.629 369.516 543.866 369.516 543.102 369.516C542.211 369.403 541.32 369.346 540.43 369.346C540.175 369.346 539.921 369.346 539.666 369.346C539.411 369.346 539.157 369.346 538.902 369.346C535.657 369.177 533.748 369.177 533.366 369.177C531.457 369.516 527.258 382.419 527.258 382.419L414.819 379.363H409.665C409.665 379.363 413.292 357.802 416.728 357.123C418.446 356.783 486.597 362.216 547.302 363.574Z" fill="url(#paint89_linear_402_1355)"/>
<path d="M577.844 474.097H570.972C567.154 454.064 540.047 378.854 537.565 378.854C535.083 378.854 471.324 375.458 451.088 375.628C450.961 375.628 450.898 375.628 450.898 375.628C447.461 375.798 445.362 375.798 444.98 376.137C442.88 378.005 431.617 453.554 428.563 473.418H420.545C420.545 473.418 420.545 473.927 420.736 473.418C422.263 463.911 436.771 374.27 439.444 372.232C441.353 370.704 487.168 372.063 518.475 373.081C518.603 373.081 518.73 373.081 518.857 373.081C531.074 373.591 539.856 374.1 540.81 374.1C544.055 374.1 577.272 471.55 577.844 474.097Z" fill="url(#paint90_linear_402_1355)"/>
<path d="M577.845 474.097H564.864C560.855 454.064 533.748 378.854 531.266 378.854C528.975 378.854 475.715 375.967 451.089 375.628C450.962 375.628 450.898 375.628 450.898 375.628C444.026 375.628 439.254 375.798 438.681 376.137C436.581 378.005 425.318 453.554 422.455 473.418H420.737H419.4C419.4 473.418 435.436 373.591 438.299 371.384C440.208 369.856 488.696 371.893 518.476 373.081C518.603 373.081 518.731 373.081 518.858 373.081C531.075 373.591 539.856 374.1 540.811 374.1C544.056 374.1 577.272 471.55 577.845 474.097Z" fill="url(#paint91_linear_402_1355)"/>
<g style="mix-blend-mode:screen" opacity="0.4">
<path d="M577.845 474.097H571.545C570.973 471.55 537.756 373.93 534.511 373.93C533.557 373.93 524.776 373.421 512.749 372.912C528.021 373.421 539.856 373.93 540.811 373.93C544.056 373.93 577.845 474.097 577.845 474.097Z" fill="#FFE6AE"/>
</g>
<g style="mix-blend-mode:screen" opacity="0.5">
<path d="M659.359 430.635L665.086 433.012L656.496 411.62L651.914 409.922L659.359 430.635Z" fill="#FFE6AE"/>
</g>
<path d="M679.212 274.103C682.457 277.498 684.175 274.103 684.175 274.103L678.448 272.915L679.212 274.103Z" fill="white"/>
<path d="M590.826 272.745C596.171 276.14 600.18 271.896 600.18 271.896L589.681 271.556L590.826 272.745Z" fill="white"/>
<path d="M571.928 229.622C574.791 225.378 582.809 221.643 582.809 221.643C582.809 221.643 575.936 220.794 574.218 222.661C572.5 224.529 571.928 229.622 571.928 229.622Z" fill="#EA7E34"/>
<path d="M713.001 228.943C713.001 229.113 712.429 230.98 711.665 233.866C696.775 227.245 639.124 223.85 639.124 223.85L643.324 224.02C644.851 224.02 646.378 224.076 647.905 224.189C651.342 224.416 654.778 224.642 658.214 224.868C662.923 225.095 667.504 225.321 671.958 225.548C695.057 227.076 713.001 228.434 713.001 228.943Z" fill="#EA7E34"/>
<path d="M418.446 467.476L417.109 477.492H430.281L431.045 467.985L418.446 467.476Z" fill="#2E1D3D"/>
<path d="M521.531 467.476L520.194 477.492H533.557L534.321 467.985L521.531 467.476Z" fill="#2E1D3D"/>
<path d="M681.502 467.476L683.411 477.492H665.276L664.131 467.985L681.502 467.476Z" fill="#2E1D3D"/>
<path d="M578.989 467.476L580.898 477.492H562.763L561.617 467.985L578.989 467.476Z" fill="#2E1D3D"/>
<defs>
<linearGradient id="paint0_linear_402_1355" x1="410.43" y1="455.252" x2="236.704" y2="287.708" gradientUnits="userSpaceOnUse">
<stop offset="0.022" stop-color="#DB6A39"/>
<stop offset="0.994" stop-color="#9A1C36"/>
</linearGradient>
<linearGradient id="paint1_linear_402_1355" x1="335.979" y1="424.353" x2="301.892" y2="309.89" gradientUnits="userSpaceOnUse">
<stop stop-color="#FB8F6B"/>
<stop offset="1" stop-color="#870050"/>
</linearGradient>
<linearGradient id="paint2_linear_402_1355" x1="664.132" y1="71.5623" x2="757.949" y2="370.828" gradientUnits="userSpaceOnUse">
<stop stop-color="#9F4057"/>
<stop offset="1" stop-color="#D1A4B2"/>
</linearGradient>
<linearGradient id="paint3_linear_402_1355" x1="513.132" y1="135.058" x2="505.573" y2="245.717" gradientUnits="userSpaceOnUse">
<stop stop-color="#F49136"/>
<stop offset="1" stop-color="#DE6221"/>
</linearGradient>
<linearGradient id="paint4_linear_402_1355" x1="474.951" y1="334.542" x2="503.026" y2="402.263" gradientUnits="userSpaceOnUse">
<stop stop-color="#F49136"/>
<stop offset="1" stop-color="#DE6221"/>
</linearGradient>
<linearGradient id="paint5_linear_402_1355" x1="668.33" y1="233.527" x2="673.02" y2="289.825" gradientUnits="userSpaceOnUse">
<stop stop-color="#890050"/>
<stop offset="1" stop-color="#FF936A"/>
</linearGradient>
<linearGradient id="paint6_linear_402_1355" x1="692.956" y1="231.32" x2="697.343" y2="283.198" gradientUnits="userSpaceOnUse">
<stop stop-color="#890050"/>
<stop offset="1" stop-color="#FF936A"/>
</linearGradient>
<linearGradient id="paint7_linear_402_1355" x1="367.476" y1="159.845" x2="335.248" y2="189.882" gradientUnits="userSpaceOnUse">
<stop offset="0.022" stop-color="#C74829"/>
<stop offset="0.994" stop-color="#AE2648"/>
</linearGradient>
<linearGradient id="paint8_linear_402_1355" x1="358.887" y1="63.0736" x2="456.102" y2="373.45" gradientUnits="userSpaceOnUse">
<stop stop-color="#9F4057"/>
<stop offset="1" stop-color="#D1A4B2"/>
</linearGradient>
<linearGradient id="paint9_linear_402_1355" x1="295.699" y1="-117.906" x2="512.397" y2="653.911" gradientUnits="userSpaceOnUse">
<stop stop-color="#9F4057"/>
<stop offset="1" stop-color="#D1A4B2"/>
</linearGradient>
<linearGradient id="paint10_linear_402_1355" x1="370.913" y1="230.811" x2="412.621" y2="365.598" gradientUnits="userSpaceOnUse">
<stop stop-color="#890050"/>
<stop offset="1" stop-color="#FF936A"/>
</linearGradient>
<linearGradient id="paint11_linear_402_1355" x1="446.509" y1="204.496" x2="490.528" y2="347.253" gradientUnits="userSpaceOnUse">
<stop stop-color="#890050"/>
<stop offset="1" stop-color="#FF936A"/>
</linearGradient>
<linearGradient id="paint12_linear_402_1355" x1="424.364" y1="148.13" x2="354.709" y2="421.222" gradientUnits="userSpaceOnUse">
<stop stop-color="#F49136"/>
<stop offset="1" stop-color="#DE6221"/>
</linearGradient>
<radialGradient id="paint13_radial_402_1355" cx="0" cy="0" r="1" gradientUnits="userSpaceOnUse" gradientTransform="translate(481.06 189.725) scale(30.1618 26.8243)">
<stop stop-color="#C77CFF"/>
<stop offset="0.998" stop-color="#8842C7"/>
</radialGradient>
<linearGradient id="paint14_linear_402_1355" x1="500.341" y1="157.638" x2="440.283" y2="223.266" gradientUnits="userSpaceOnUse">
<stop stop-color="#B03986"/>
<stop offset="1" stop-color="white"/>
</linearGradient>
<radialGradient id="paint15_radial_402_1355" cx="0" cy="0" r="1" gradientUnits="userSpaceOnUse" gradientTransform="translate(479.532 228.434) scale(20.2351 17.9961)">
<stop stop-color="#FF264D"/>
<stop offset="0.998" stop-color="#C70033"/>
</radialGradient>
<linearGradient id="paint16_linear_402_1355" x1="493.086" y1="209.928" x2="456.497" y2="251.07" gradientUnits="userSpaceOnUse">
<stop stop-color="#B03986"/>
<stop offset="1" stop-color="white"/>
</linearGradient>
<radialGradient id="paint17_radial_402_1355" cx="0" cy="0" r="1" gradientUnits="userSpaceOnUse" gradientTransform="translate(465.025 210.607) scale(28.2528 25.1266)">
<stop stop-color="#A422B5"/>
<stop offset="0.998" stop-color="#65057D"/>
</radialGradient>
<linearGradient id="paint18_linear_402_1355" x1="483.543" y1="184.632" x2="425.656" y2="250.856" gradientUnits="userSpaceOnUse">
<stop stop-color="#B03986"/>
<stop offset="1" stop-color="white"/>
</linearGradient>
<linearGradient id="paint19_linear_402_1355" x1="541.002" y1="278.687" x2="541.002" y2="243.883" gradientUnits="userSpaceOnUse">
<stop stop-color="#1C257B"/>
<stop offset="1" stop-color="#482C83"/>
</linearGradient>
<linearGradient id="paint20_linear_402_1355" x1="454.528" y1="139.981" x2="454.528" y2="34.212" gradientUnits="userSpaceOnUse">
<stop offset="0.016" stop-color="#FFC2A9"/>
<stop offset="1" stop-color="#FF9595"/>
</linearGradient>
<linearGradient id="paint21_linear_402_1355" x1="451.092" y1="139.981" x2="451.092" y2="35.4004" gradientUnits="userSpaceOnUse">
<stop offset="0.016" stop-color="#FFA58B"/>
<stop offset="1" stop-color="#FF898E"/>
</linearGradient>
<linearGradient id="paint22_linear_402_1355" x1="529.549" y1="145.754" x2="529.549" y2="127.078" gradientUnits="userSpaceOnUse">
<stop stop-color="#FF817F"/>
<stop offset="1" stop-color="#CF6074"/>
</linearGradient>
<linearGradient id="paint23_linear_402_1355" x1="371.296" y1="346.936" x2="371.296" y2="243.883" gradientUnits="userSpaceOnUse">
<stop stop-color="#FF817F"/>
<stop offset="1" stop-color="#CF6074"/>
</linearGradient>
<linearGradient id="paint24_linear_402_1355" x1="389.241" y1="344.729" x2="389.241" y2="242.865" gradientUnits="userSpaceOnUse">
<stop offset="0.016" stop-color="#FFC2A9"/>
<stop offset="1" stop-color="#FF9595"/>
</linearGradient>
<linearGradient id="paint25_linear_402_1355" x1="455.1" y1="266.633" x2="509.888" y2="266.633" gradientUnits="userSpaceOnUse">
<stop offset="0.016" stop-color="#FFA58B"/>
<stop offset="1" stop-color="#FF898E"/>
</linearGradient>
<linearGradient id="paint26_linear_402_1355" x1="490.799" y1="109.422" x2="490.799" y2="95.5005" gradientUnits="userSpaceOnUse">
<stop stop-color="#FF8883"/>
<stop offset="1" stop-color="#FFB1A4"/>
</linearGradient>
<linearGradient id="paint27_linear_402_1355" x1="494.806" y1="109.422" x2="494.806" y2="101.612" gradientUnits="userSpaceOnUse">
<stop stop-color="#FF8883"/>
<stop offset="1" stop-color="#E8868D"/>
</linearGradient>
<linearGradient id="paint28_linear_402_1355" x1="491.371" y1="129.795" x2="491.371" y2="101.612" gradientUnits="userSpaceOnUse">
<stop stop-color="#CF6074"/>
<stop offset="1" stop-color="#E04A7F"/>
</linearGradient>
<linearGradient id="paint29_linear_402_1355" x1="536.613" y1="137.774" x2="536.613" y2="119.608" gradientUnits="userSpaceOnUse">
<stop stop-color="#FF817F"/>
<stop offset="1" stop-color="#CF6074"/>
</linearGradient>
<linearGradient id="paint30_linear_402_1355" x1="523.251" y1="102.801" x2="523.251" y2="99.9146" gradientUnits="userSpaceOnUse">
<stop offset="0.016" stop-color="#FFA58B"/>
<stop offset="1" stop-color="#FF9595"/>
</linearGradient>
<linearGradient id="paint31_linear_402_1355" x1="514.278" y1="92.4446" x2="514.278" y2="67.4877" gradientUnits="userSpaceOnUse">
<stop stop-color="#CF6074"/>
<stop offset="1" stop-color="#FF817F"/>
</linearGradient>
<linearGradient id="paint32_linear_402_1355" x1="468.271" y1="93.8027" x2="468.271" y2="74.2787" gradientUnits="userSpaceOnUse">
<stop stop-color="#CF6074"/>
<stop offset="1" stop-color="#FF817F"/>
</linearGradient>
<linearGradient id="paint33_linear_402_1355" x1="522.104" y1="125.72" x2="550.738" y2="125.72" gradientUnits="userSpaceOnUse">
<stop stop-color="#FF817F"/>
<stop offset="1" stop-color="#CF6074"/>
</linearGradient>
<linearGradient id="paint34_linear_402_1355" x1="511.414" y1="165.787" x2="511.414" y2="118.929" gradientUnits="userSpaceOnUse">
<stop stop-color="#FF9595"/>
<stop offset="0.984" stop-color="#FFC2A9"/>
</linearGradient>
<linearGradient id="paint35_linear_402_1355" x1="477.052" y1="170.201" x2="477.052" y2="126.569" gradientUnits="userSpaceOnUse">
<stop stop-color="#FF9595"/>
<stop offset="0.984" stop-color="#FFC2A9"/>
</linearGradient>
<linearGradient id="paint36_linear_402_1355" x1="530.694" y1="131.323" x2="530.694" y2="123.004" gradientUnits="userSpaceOnUse">
<stop stop-color="#FF817F"/>
<stop offset="1" stop-color="#CF6074"/>
</linearGradient>
<linearGradient id="paint37_linear_402_1355" x1="473.616" y1="300.588" x2="473.616" y2="273.763" gradientUnits="userSpaceOnUse">
<stop stop-color="#FF817F"/>
<stop offset="1" stop-color="#CF6074"/>
</linearGradient>
<linearGradient id="paint38_linear_402_1355" x1="546.539" y1="128.776" x2="546.539" y2="120.288" gradientUnits="userSpaceOnUse">
<stop stop-color="#FF817F"/>
<stop offset="1" stop-color="#CF6074"/>
</linearGradient>
<linearGradient id="paint39_linear_402_1355" x1="558.948" y1="126.23" x2="558.948" y2="119.099" gradientUnits="userSpaceOnUse">
<stop stop-color="#FF817F"/>
<stop offset="1" stop-color="#CF6074"/>
</linearGradient>
<linearGradient id="paint40_linear_402_1355" x1="530.122" y1="165.617" x2="530.122" y2="130.644" gradientUnits="userSpaceOnUse">
<stop offset="0.016" stop-color="#FFA58B"/>
<stop offset="1" stop-color="#FF898E"/>
</linearGradient>
<linearGradient id="paint41_linear_402_1355" x1="501.107" y1="170.201" x2="501.107" y2="152.375" gradientUnits="userSpaceOnUse">
<stop stop-color="#FF817F"/>
<stop offset="1" stop-color="#CF6074"/>
</linearGradient>
<linearGradient id="paint42_linear_402_1355" x1="522.487" y1="202.798" x2="522.487" y2="159.166" gradientUnits="userSpaceOnUse">
<stop stop-color="#CCEDFF"/>
<stop offset="1" stop-color="#9D68C2"/>
</linearGradient>
<linearGradient id="paint43_linear_402_1355" x1="481.062" y1="207.891" x2="481.062" y2="162.052" gradientUnits="userSpaceOnUse">
<stop stop-color="#CCEDFF"/>
<stop offset="1" stop-color="#9D68C2"/>
</linearGradient>
<linearGradient id="paint44_linear_402_1355" x1="477.434" y1="197.535" x2="597.89" y2="197.535" gradientUnits="userSpaceOnUse">
<stop stop-color="#9D68C2"/>
<stop offset="1" stop-color="#CCEDFF"/>
</linearGradient>
<linearGradient id="paint45_linear_402_1355" x1="463.309" y1="253.56" x2="605.909" y2="253.56" gradientUnits="userSpaceOnUse">
<stop stop-color="#CCB8FF"/>
<stop offset="1" stop-color="#AF8BC2"/>
</linearGradient>
<linearGradient id="paint46_linear_402_1355" x1="553.221" y1="288.873" x2="553.221" y2="266.633" gradientUnits="userSpaceOnUse">
<stop stop-color="#CCB8FF"/>
<stop offset="1" stop-color="#AF8BC2"/>
</linearGradient>
<linearGradient id="paint47_linear_402_1355" x1="430.665" y1="346.936" x2="430.665" y2="271.387" gradientUnits="userSpaceOnUse">
<stop stop-color="#CCB8FF"/>
<stop offset="1" stop-color="#AF8BC2"/>
</linearGradient>
<linearGradient id="paint48_linear_402_1355" x1="448.607" y1="121.306" x2="448.989" y2="121.306" gradientUnits="userSpaceOnUse">
<stop stop-color="#9D68C2"/>
<stop offset="1" stop-color="#CCEDFF"/>
</linearGradient>
<linearGradient id="paint49_linear_402_1355" x1="121.029" y1="168.334" x2="121.029" y2="67.318" gradientUnits="userSpaceOnUse">
<stop stop-color="#9D68C2"/>
<stop offset="1" stop-color="#CCEDFF"/>
</linearGradient>
<linearGradient id="paint50_linear_402_1355" x1="487.362" y1="30.1374" x2="509.125" y2="30.1374" gradientUnits="userSpaceOnUse">
<stop stop-color="#9D68C2"/>
<stop offset="1" stop-color="#CCEDFF"/>
</linearGradient>
<linearGradient id="paint51_linear_402_1355" x1="421.502" y1="143.886" x2="421.502" y2="36.2493" gradientUnits="userSpaceOnUse">
<stop stop-color="#9D68C2"/>
<stop offset="1" stop-color="#CCEDFF"/>
</linearGradient>
<linearGradient id="paint52_linear_402_1355" x1="598.846" y1="122.495" x2="613.163" y2="122.495" gradientUnits="userSpaceOnUse">
<stop stop-color="#9D68C2"/>
<stop offset="1" stop-color="#CCEDFF"/>
</linearGradient>
<linearGradient id="paint53_linear_402_1355" x1="564.293" y1="113.497" x2="564.293" y2="89.3886" gradientUnits="userSpaceOnUse">
<stop offset="0.016" stop-color="#FFAC8B"/>
<stop offset="1" stop-color="#FF9595"/>
</linearGradient>
<linearGradient id="paint54_linear_402_1355" x1="577.847" y1="94.9912" x2="590.064" y2="94.9912" gradientUnits="userSpaceOnUse">
<stop stop-color="#FF817F"/>
<stop offset="1" stop-color="#CF6074"/>
</linearGradient>
<linearGradient id="paint55_linear_402_1355" x1="354.308" y1="128.776" x2="275.451" y2="71.79" gradientUnits="userSpaceOnUse">
<stop stop-color="#470066"/>
<stop offset="1" stop-color="white"/>
</linearGradient>
<radialGradient id="paint56_radial_402_1355" cx="0" cy="0" r="1" gradientUnits="userSpaceOnUse" gradientTransform="translate(441.357 82.2581) scale(32.2616 28.6918)">
<stop offset="0.033" stop-color="#E3BBD1"/>
<stop offset="0.983" stop-color="#C5ACCE"/>
</radialGradient>
<linearGradient id="paint57_linear_402_1355" x1="441.548" y1="135.737" x2="480.705" y2="45.0269" gradientUnits="userSpaceOnUse">
<stop stop-color="#470066"/>
<stop offset="1" stop-color="white"/>
</linearGradient>
<radialGradient id="paint58_radial_402_1355" cx="0" cy="0" r="1" gradientUnits="userSpaceOnUse" gradientTransform="translate(363.279 64.4318) scale(51.5423 45.8391)">
<stop offset="0.033" stop-color="#E3BBD1"/>
<stop offset="0.983" stop-color="#C5ACCE"/>
</radialGradient>
<linearGradient id="paint59_linear_402_1355" x1="367.862" y1="176.313" x2="461.525" y2="-75.324" gradientUnits="userSpaceOnUse">
<stop stop-color="#470066"/>
<stop offset="1" stop-color="white"/>
</linearGradient>
<linearGradient id="paint60_linear_402_1355" x1="485.454" y1="94.1423" x2="488.166" y2="88.9408" gradientUnits="userSpaceOnUse">
<stop stop-color="#470066"/>
<stop offset="1" stop-color="white"/>
</linearGradient>
<radialGradient id="paint61_radial_402_1355" cx="0" cy="0" r="1" gradientUnits="userSpaceOnUse" gradientTransform="translate(285.394 41.1728) scale(36.4613 32.4269)">
<stop stop-color="#485D93"/>
<stop offset="1" stop-color="#2A074D"/>
</radialGradient>
<linearGradient id="paint62_linear_402_1355" x1="206.935" y1="20.7999" x2="218.964" y2="86.8882" gradientUnits="userSpaceOnUse">
<stop stop-color="#8900D9"/>
<stop offset="1"/>
</linearGradient>
<linearGradient id="paint63_linear_402_1355" x1="300.666" y1="25.0442" x2="272.795" y2="25.0442" gradientUnits="userSpaceOnUse">
<stop stop-color="#890066"/>
<stop offset="1" stop-color="white"/>
</linearGradient>
<linearGradient id="paint64_linear_402_1355" x1="301.62" y1="-32.5094" x2="306.607" y2="59.9188" gradientUnits="userSpaceOnUse">
<stop stop-color="#A66D8D"/>
<stop offset="1"/>
</linearGradient>
<linearGradient id="paint65_linear_402_1355" x1="418.257" y1="37.7773" x2="403.138" y2="78.2639" gradientUnits="userSpaceOnUse">
<stop stop-color="#A66D8D"/>
<stop offset="1"/>
</linearGradient>
<linearGradient id="paint66_linear_402_1355" x1="476.482" y1="60.5269" x2="464.318" y2="92.7931" gradientUnits="userSpaceOnUse">
<stop stop-color="#A66D8D"/>
<stop offset="1"/>
</linearGradient>
<linearGradient id="paint67_linear_402_1355" x1="323.956" y1="110.101" x2="325.013" y2="33.8686" gradientUnits="userSpaceOnUse">
<stop stop-color="#470066"/>
<stop offset="1" stop-color="white"/>
</linearGradient>
<linearGradient id="paint68_linear_402_1355" x1="183.261" y1="564.926" x2="64.3127" y2="370.218" gradientUnits="userSpaceOnUse">
<stop stop-color="#9F4057"/>
<stop offset="1" stop-color="#D1A4B2"/>
</linearGradient>
<linearGradient id="paint69_linear_402_1355" x1="479.342" y1="546.93" x2="504.291" y2="401.363" gradientUnits="userSpaceOnUse">
<stop stop-color="#9F4057"/>
<stop offset="1" stop-color="#D1A4B2"/>
</linearGradient>
<linearGradient id="paint70_linear_402_1355" x1="346.67" y1="558.305" x2="282.11" y2="452.419" gradientUnits="userSpaceOnUse">
<stop stop-color="#9F4057"/>
<stop offset="1" stop-color="#D1A4B2"/>
</linearGradient>
<linearGradient id="paint71_linear_402_1355" x1="523.63" y1="475.794" x2="523.438" y2="475.794" gradientUnits="userSpaceOnUse">
<stop stop-color="#9F4057"/>
<stop offset="1" stop-color="#D1A4B2"/>
</linearGradient>
<linearGradient id="paint72_linear_402_1355" x1="655.159" y1="475.116" x2="570.276" y2="485.388" gradientUnits="userSpaceOnUse">
<stop stop-color="#9F4057"/>
<stop offset="1" stop-color="#D1A4B2"/>
</linearGradient>
<linearGradient id="paint73_linear_402_1355" x1="464.261" y1="472.399" x2="645.579" y2="231.691" gradientUnits="userSpaceOnUse">
<stop stop-color="#9F4057"/>
<stop offset="1" stop-color="#D1A4B2"/>
</linearGradient>
<linearGradient id="paint74_linear_402_1355" x1="569.827" y1="422.486" x2="586.921" y2="339.937" gradientUnits="userSpaceOnUse">
<stop stop-color="#9F4057"/>
<stop offset="1" stop-color="#D1A4B2"/>
</linearGradient>
<linearGradient id="paint75_linear_402_1355" x1="461.589" y1="319.093" x2="469.544" y2="311.898" gradientUnits="userSpaceOnUse">
<stop offset="0.022" stop-color="#C74829"/>
<stop offset="0.994" stop-color="#AE2648"/>
</linearGradient>
<linearGradient id="paint76_linear_402_1355" x1="709.755" y1="264.086" x2="586.557" y2="432.283" gradientUnits="userSpaceOnUse">
<stop offset="0.022" stop-color="#DB6A39"/>
<stop offset="0.994" stop-color="#9A1C36"/>
</linearGradient>
<linearGradient id="paint77_linear_402_1355" x1="530.311" y1="185.141" x2="757.833" y2="319.554" gradientUnits="userSpaceOnUse">
<stop stop-color="#890050"/>
<stop offset="1" stop-color="#FF936A"/>
</linearGradient>
<linearGradient id="paint78_linear_402_1355" x1="491.37" y1="203.986" x2="859.174" y2="421.428" gradientUnits="userSpaceOnUse">
<stop stop-color="#890050"/>
<stop offset="1" stop-color="#FF936A"/>
</linearGradient>
<linearGradient id="paint79_linear_402_1355" x1="482.779" y1="92.6142" x2="776.594" y2="266.023" gradientUnits="userSpaceOnUse">
<stop stop-color="#9F4057"/>
<stop offset="1" stop-color="#D1A4B2"/>
</linearGradient>
<linearGradient id="paint80_linear_402_1355" x1="520.575" y1="338.956" x2="559.192" y2="152.912" gradientUnits="userSpaceOnUse">
<stop stop-color="#890050"/>
<stop offset="1" stop-color="#FF936A"/>
</linearGradient>
<linearGradient id="paint81_linear_402_1355" x1="529.738" y1="324.356" x2="564.385" y2="156.86" gradientUnits="userSpaceOnUse">
<stop stop-color="#890050"/>
<stop offset="1" stop-color="#FF936A"/>
</linearGradient>
<linearGradient id="paint82_linear_402_1355" x1="635.877" y1="314" x2="405.016" y2="518.823" gradientUnits="userSpaceOnUse">
<stop offset="0.022" stop-color="#C74829"/>
<stop offset="0.994" stop-color="#AE2648"/>
</linearGradient>
<linearGradient id="paint83_linear_402_1355" x1="548.257" y1="341.673" x2="411.855" y2="462.695" gradientUnits="userSpaceOnUse">
<stop stop-color="#9F4057"/>
<stop offset="1" stop-color="#D1A4B2"/>
</linearGradient>
<linearGradient id="paint84_linear_402_1355" x1="556.655" y1="443.707" x2="496.049" y2="553.318" gradientUnits="userSpaceOnUse">
<stop offset="0.022" stop-color="#C74829"/>
<stop offset="0.994" stop-color="#AE2648"/>
</linearGradient>
<linearGradient id="paint85_linear_402_1355" x1="516.758" y1="272.745" x2="684.175" y2="272.745" gradientUnits="userSpaceOnUse">
<stop stop-color="#9F4057"/>
<stop offset="1" stop-color="#D1A4B2"/>
</linearGradient>
<linearGradient id="paint86_linear_402_1355" x1="530.123" y1="221.473" x2="678.353" y2="309.174" gradientUnits="userSpaceOnUse">
<stop stop-color="#9F4057"/>
<stop offset="1" stop-color="#D1A4B2"/>
</linearGradient>
<linearGradient id="paint87_linear_402_1355" x1="598.843" y1="224.02" x2="771.84" y2="326.153" gradientUnits="userSpaceOnUse">
<stop stop-color="#9F4057"/>
<stop offset="1" stop-color="#D1A4B2"/>
</linearGradient>
<linearGradient id="paint88_linear_402_1355" x1="444.409" y1="271.217" x2="600.563" y2="271.217" gradientUnits="userSpaceOnUse">
<stop stop-color="#9F4057"/>
<stop offset="1" stop-color="#D1A4B2"/>
</linearGradient>
<linearGradient id="paint89_linear_402_1355" x1="409.665" y1="357.123" x2="547.302" y2="357.123" gradientUnits="userSpaceOnUse">
<stop stop-color="#9F4057"/>
<stop offset="1" stop-color="#D1A4B2"/>
</linearGradient>
<linearGradient id="paint90_linear_402_1355" x1="552.264" y1="473.078" x2="467.189" y2="483.35" gradientUnits="userSpaceOnUse">
<stop stop-color="#9F4057"/>
<stop offset="1" stop-color="#D1A4B2"/>
</linearGradient>
<linearGradient id="paint91_linear_402_1355" x1="361.368" y1="470.192" x2="542.685" y2="229.484" gradientUnits="userSpaceOnUse">
<stop stop-color="#9F4057"/>
<stop offset="1" stop-color="#D1A4B2"/>
</linearGradient>
</defs>
</svg>
