<svg width="94" height="30" viewBox="0 0 94 30" fill="none" xmlns="http://www.w3.org/2000/svg">
<g id="Group 73">
<path id="Vector" d="M21.5915 24.8741L22.6203 24.9645C20.2615 27.7057 16.766 29.4413 12.8662 29.4413C5.76052 29.4413 0 23.6807 0 16.5739C0 9.46713 5.76052 3.70776 12.8662 3.70776C16.9873 3.70776 20.6554 5.64494 23.0096 8.65959L21.5915 24.8741Z" fill="#5E239D"/>
<path id="Vector_2" d="M10.7046 21.3657C11.4229 21.8292 12.4031 22.0064 13.6439 21.8975C14.1537 21.8523 14.6334 21.7875 15.0817 21.7017C16.0225 21.5024 17.0119 21.1885 18.05 20.7586C19.0881 20.3288 19.9316 19.9511 20.5804 19.6255L21.5919 22.5707C21.2605 22.9275 20.6812 23.3492 19.8528 23.8358C19.0244 24.3236 18.0582 24.7674 16.954 25.1682C15.8499 25.5691 14.7284 25.8182 13.5918 25.9178C11.504 26.1009 9.8055 25.8981 8.49746 25.3119C7.1894 24.7245 6.19881 23.7513 5.52451 22.3899C4.85021 21.0286 4.41458 19.2293 4.21878 16.9897C4.03804 14.9251 4.16896 13.2104 4.61038 11.8444C5.0518 10.4796 5.87325 9.4137 7.07471 8.64787C8.27617 7.88204 9.926 7.40818 12.0265 7.22396C14.404 7.01541 16.3469 7.37458 17.8542 8.30145C19.3616 9.22716 20.2711 10.8052 20.5827 13.0331C20.6291 13.2985 20.6754 13.6854 20.7194 14.1964C20.7739 14.8232 20.8017 15.4048 20.8017 15.9424C20.8017 16.4799 20.7971 16.8194 20.7855 16.9608L9.46372 18.6175C9.57147 19.987 9.98508 20.9034 10.7034 21.3669L10.7046 21.3657ZM15.8082 13.573C15.646 11.717 14.4746 10.884 12.293 11.0751C11.2144 11.169 10.4103 11.5328 9.88081 12.163C9.35134 12.7945 9.09761 13.704 9.12078 14.895L15.8313 14.0446C15.8337 13.9392 15.8256 13.7816 15.8082 13.573Z" fill="#FBB452"/>
<path id="Vector_3" d="M42.416 21.3633C42.2121 21.5557 41.912 21.7376 41.5181 21.9067C41.123 22.077 40.7048 22.1431 40.2645 22.1048C39.8115 22.0643 39.4836 21.9044 39.2808 21.624C39.0769 21.3425 38.9599 20.9207 38.9275 20.3565C38.8939 19.7934 38.917 18.9998 38.9947 17.9779L39.289 14.6203C39.4987 12.2186 39.1997 10.3602 38.391 9.04518C37.5835 7.72902 36.1237 6.97941 34.0116 6.79404C33.1531 6.71989 32.32 6.82185 31.5125 7.10222C30.7049 7.38145 30.0167 7.70469 29.4467 8.06965C28.8778 8.4346 28.5894 8.65821 28.5824 8.73931L28.7724 6.56348L23.8241 6.60402L23.7047 7.96422L22.2866 24.1787L23.3155 24.2691L27.1933 24.6074L28.2986 11.9753C28.302 11.9405 28.4781 11.798 28.8269 11.5477C29.1756 11.2986 29.6078 11.0785 30.121 10.8897C30.6343 10.7008 31.1811 10.6324 31.7604 10.6823C32.8275 10.7761 33.5435 11.2129 33.9085 11.9926C34.2723 12.7724 34.3858 13.946 34.2491 15.5113L33.9339 19.1133C33.7659 21.0273 33.9803 22.6158 34.5781 23.8775C35.1748 25.1392 36.418 25.8529 38.3088 26.0185C39.1441 26.0915 39.9262 25.9734 40.6549 25.6629C41.3825 25.3524 41.9954 24.9944 42.4936 24.5877C42.9907 24.181 43.2409 23.9551 43.2455 23.9076L42.416 21.3633Z" fill="#5E239D"/>
<path id="Vector_4" d="M55.8902 7.33176C57.0835 7.69904 58.117 8.51932 58.9906 9.79493C59.8641 11.0705 60.3009 12.959 60.3009 15.4628V16.9122C60.3009 19.2293 59.914 21.0228 59.14 22.2915C58.3649 23.5613 57.3674 24.4222 56.145 24.8763C54.9227 25.3305 53.5081 25.5576 51.9011 25.5576C50.4344 25.5576 49.1031 25.3745 47.9098 25.0072C46.7164 24.64 45.683 23.8197 44.8094 22.5441C43.9358 21.2696 43.499 19.38 43.499 16.8762V15.4442C43.499 13.127 43.886 11.3312 44.6611 10.0556C45.435 8.78116 46.4337 7.91569 47.6561 7.46153C48.8784 7.00736 50.293 6.78027 51.9 6.78027C53.3668 6.78027 54.6968 6.96333 55.8913 7.3306L55.8902 7.33176ZM49.175 20.038C49.6871 21.0043 50.5954 21.4874 51.9 21.4874C53.2857 21.4874 54.2137 20.9927 54.6852 20.0033C55.1568 19.0138 55.3931 17.7382 55.3931 16.1776C55.3931 14.5591 55.1371 13.2695 54.625 12.3091C54.1129 11.3486 53.2046 10.8678 51.9 10.8678C50.5143 10.8678 49.5851 11.3602 49.1136 12.3438C48.642 13.3275 48.4057 14.5996 48.4057 16.1602C48.4057 17.7209 48.6617 19.0718 49.1738 20.038H49.175Z" fill="#5E239D"/>
<path id="Vector_5" d="M67.9049 19.5247C67.9315 20.1527 68.0497 20.6393 68.2594 20.9846C68.4691 21.3298 68.7993 21.5222 69.2523 21.5627C69.7273 21.6044 70.2452 21.5361 70.8048 21.3565C71.3644 21.1769 71.7804 20.995 72.0538 20.8085L72.8845 23.3353C72.1801 24.034 71.332 24.582 70.3379 24.9794C69.345 25.3768 68.3718 25.5355 67.4217 25.4521C66.0303 25.3304 64.9887 24.9006 64.2993 24.1626C63.61 23.4246 63.1859 22.5313 63.026 21.4828C62.8662 20.4342 62.8453 19.2432 62.9612 17.9097L64.4569 0.613051L69.4412 0.558594L67.9999 17.0361C67.9095 18.0684 67.8782 18.8991 67.9049 19.5259V19.5247Z" fill="#5E239D"/>
<path id="Vector_6" d="M89.3542 20.4886C89.3264 21.1166 89.4017 21.6113 89.5801 21.9739C89.7585 22.3366 90.0713 22.5567 90.5186 22.6355C90.9889 22.7189 91.5161 22.6934 92.1012 22.5602C92.6863 22.427 93.1173 22.2787 93.3953 22.1141L94.0001 24.721C93.2239 25.3651 92.3236 25.8448 91.2983 26.1599C90.2729 26.4762 89.2905 26.5504 88.3497 26.3847C86.0788 25.9838 84.7592 24.7175 84.3908 22.5834C83.6748 23.3561 82.8649 23.9436 81.9612 24.3456C81.0563 24.7476 80.0669 24.8774 78.9929 24.736C78.8527 24.7233 78.6453 24.6932 78.3707 24.6445C75.9516 24.2181 74.4755 22.9761 73.9461 20.9196C73.4154 18.8631 73.3668 16.6143 73.7966 14.1708C74.2925 11.3612 75.2147 9.23059 76.5645 7.77771C77.9142 6.32484 79.8224 5.81622 82.2879 6.25069C83.0561 6.38624 83.8115 6.69906 84.5518 7.19031C85.2922 7.68155 85.8703 8.19481 86.2851 8.72892L86.5492 7.23202L91.3354 8.55513L89.667 18.0162C89.4874 19.0369 89.3831 19.8607 89.3553 20.4886H89.3542ZM82.7989 10.4911C81.9728 10.3452 81.2672 10.5282 80.6798 11.0403C80.0935 11.5512 79.6336 12.1977 79.2999 12.9786C78.9674 13.7595 78.7334 14.5346 78.5978 15.3028C78.3858 16.6375 78.4298 17.8158 78.7287 18.8376C79.0276 19.8595 79.6324 20.5048 80.5431 20.7713L80.7806 20.8304C81.4109 20.9416 82.0597 20.849 82.727 20.5524C83.3944 20.2558 83.9563 19.8468 84.4151 19.3242L85.6258 12.4607C84.8994 11.3508 83.9563 10.6939 82.7989 10.49V10.4911Z" fill="#5E239D"/>
</g>
</svg>
